<?xml version="1.0" encoding="UTF-8"?>
<svg viewBox="0 0 30 28" xmlns="http://www.w3.org/2000/svg">
<mask id="a" fill="white">
<path d="m10 0c-5.5228 0-10 4.4772-10 10v15.468c0 1.5546 1.6959 2.5148 3.029 1.715l5.3043-3.1826h11.667c5.5228 0 10-4.4772 10-10v-4c0-5.5228-4.4772-10-10-10h-10z" clip-rule="evenodd" fill-rule="evenodd"/>
</mask>
<path d="m3.029 27.183 1.5435 2.5725-1.5435-2.5725zm5.3043-3.1826v-3h-0.83095l-0.71253 0.4275 1.5435 2.5725zm-5.3333-14c0-3.866 3.134-7 7-7v-6c-7.1797 0-13 5.8203-13 13h6zm0 13v-13h-6v13h6zm-6 0v1h6v-1h-6zm0 1v1.4676h6v-1.4676h-6zm0 1.4676c0 3.8865 4.2399 6.2871 7.5725 4.2875l-3.087-5.145c0.66652-0.3999 1.5145 0.0802 1.5145 0.8575h-6zm7.5725 4.2875 5.3043-3.1826-3.087-5.145-5.3044 3.1826 3.087 5.145zm15.428-8.7551h-11.667v6h11.667v-6zm7-7c0 3.866-3.134 7-7 7v6c7.1797 0 13-5.8203 13-13h-6zm0-4v4h6v-4h-6zm-7-7c3.866 0 7 3.134 7 7h6c0-7.1797-5.8203-13-13-13v6zm-10 0h10v-6h-10v6z" fill="#E5E5E5" mask="url(#a)"/>
</svg>
