<?xml version="1.0" encoding="UTF-8"?>
<svg fill="none" viewBox="0 0 50 50" xmlns="http://www.w3.org/2000/svg">
<path d="m46.876 11.848c-1.701 2.4352-3.8233 4.5471-6.2668 6.2362-0.1546 4.2717-1.4015 8.4324-3.6217 12.085s-5.3396 6.6752-9.0604 8.7792c-3.7207 2.104-7.9187 3.2192-12.193 3.2391s-8.4826-1.0562-12.223-3.1254l0.00127-0.0023c4.8841-0.0677 9.6402-1.5716 13.675-4.3243-4.3193-2.944-7.6092-7.1656-9.4082-12.073-1.7989-4.9079-2.0169-10.256-0.62325-15.294 1.996 3.0739 4.6435 5.6714 7.7551 7.6083 3.1115 1.9368 6.611 3.1657 10.25 3.5997-0.3832-1.827-0.1004-3.7306 0.7984-5.3667s2.3536-2.8964 4.1011-3.5528 3.6722-0.66554 5.4259-0.02577c1.7536 0.63976 3.2203 1.8862 4.1346 3.5137 2.4688-0.0737 4.9131-0.5101 7.2543-1.2969z" stroke="#E5E5E5" stroke-linecap="round" stroke-linejoin="round" stroke-width="3"/>
</svg>
