<?xml version="1.0" encoding="UTF-8"?>
<svg fill="none" viewBox="0 0 399 313" xmlns="http://www.w3.org/2000/svg">
<g clip-path="url(#a)">
<path d="m278.92 258.35-76.999-44.376c-0.443-0.254-0.809-0.622-1.061-1.067-0.251-0.445-0.378-0.95-0.366-1.46 0.011-0.511 0.16-1.009 0.431-1.443 0.271-0.433 0.654-0.784 1.108-1.018l9.687-5.003c0.423-0.217 0.894-0.324 1.369-0.313 0.476 0.011 0.941 0.141 1.354 0.377l79.586 45.87c0.443 0.255 0.809 0.625 1.06 1.07s0.377 0.95 0.366 1.461c-0.011 0.512-0.16 1.01-0.431 1.444s-0.653 0.786-1.107 1.021l-7.027 3.621c-1.238 0.641-2.616 0.96-4.009 0.927-1.392-0.032-2.755-0.414-3.961-1.111z" fill="#D6D8E5" opacity=".4"/>
<path d="m283.64 250-65.627-37.918c-5.59-3.197-10.07-11.829-10.07-19.246v-183.22c0-7.4173 4.512-10.83 10.07-7.6172l65.627 37.99c5.59 3.1971 10.07 11.829 10.07 19.247v183.2c0 7.378-4.512 10.783-10.07 7.569z" fill="#B1B4C4"/>
<path d="m284.76 253.3 5.198-2.629-4.983-8.552-0.215 11.181z" fill="#B1B4C4"/>
<path d="m206.94 3.8613 4.784-2.5098-0.966 7.0577-3.818-4.5479z" fill="#B1B4C4"/>
<path d="m279.5 252.1-65.619-37.918c-5.59-3.198-10.062-11.83-10.062-19.247v-183.19c0-7.4173 4.504-10.83 10.062-7.6171l65.619 37.918c5.59 3.1972 10.062 11.829 10.062 19.247v183.2c-0.04 7.418-4.544 10.823-10.062 7.61z" fill="#616E84"/>
<path d="m288.82 61.761v183.18c0 7.425-4.504 10.83-10.062 7.625l-25.73-14.875-7.986-4.619-31.903-18.424c-5.59-3.197-10.062-11.829-10.062-19.255v-183.18c0-7.3934 4.504-10.83 10.062-7.6252l65.619 37.918c5.534 3.2131 10.062 11.869 10.062 19.255z" fill="#20232D"/>
<path d="m284.09 59.899v178.42c0 4.492-3.154 6.322-7.043 4.068l-20.516-11.853-1.789-1.047-0.606-0.352-4.433-2.566-12.833-7.401-5.326-3.077-2.14-1.239-14.59-8.4c-3.889-2.246-7.036-7.722-7.036-12.214v-178.42c0-4.5 3.147-6.3223 7.036-4.0764l25.618 14.811v0.0719c0.11 1.9072 0.668 3.7616 1.628 5.4128s2.296 3.0526 3.898 4.0907c3.035 1.7344 5.494 0.3277 5.494-3.1972v-0.0799l25.619 14.811c3.865 2.27 7.019 7.7371 7.019 12.237z" fill="#fff"/>
<path d="m248.4 34.418c0.817-0.4701 0.822-1.9969 0.01-3.4102-0.811-1.4133-2.131-2.1779-2.949-1.7078-0.817 0.4701-0.822 1.997-0.01 3.4102 0.811 1.4133 2.132 2.1779 2.949 1.7078z" fill="#2B303F"/>
<path d="m245.96 32.739c-0.258-0.1688-0.472-0.3967-0.625-0.665s-0.24-0.5692-0.253-0.8777c0-0.5595 0.391-0.7992 0.87-0.5035 0.254 0.165 0.466 0.388 0.617 0.6506s0.238 0.5573 0.254 0.86c0 0.5915-0.391 0.8153-0.863 0.5356z" fill="#fff" opacity=".1"/>
<path d="m291.48 85.86c-0.535 0.3117-0.974 0-0.974-0.7353v-7.809c7e-3 -0.3636 0.099-0.7204 0.268-1.0423s0.411-0.5999 0.706-0.8121c0.535-0.3037 0.966 0 0.966 0.7354v7.809c-4e-3 0.3632-0.094 0.7203-0.262 1.0424s-0.409 0.6002-0.704 0.8119z" fill="#757B89"/>
<path d="m291.48 98.656c-0.535 0.3118-0.974 0-0.974-0.7273v-7.817c7e-3 -0.3636 0.099-0.7204 0.268-1.0423s0.411-0.5999 0.706-0.812c0.535-0.3038 0.966 0 0.966 0.7353v7.809c-4e-3 0.3634-0.093 0.7207-0.261 1.0429s-0.409 0.6002-0.705 0.8114z" fill="#757B89"/>
<path d="m137.72 207.79-68.637 39.924-69.085-39.924 68.638-39.924 69.084 39.924z" fill="#D6D8E5" opacity=".4"/>
<path d="m143.02 198.46-0.016 6.866-68.638 39.924 0.016-6.874 68.638-39.916z" fill="#D3D3DD"/>
<path d="m74.379 238.37-0.016 6.874-69.085-39.924 0.01597-6.866 69.085 39.916z" fill="#E0DEE9"/>
<path d="m143.02 198.46-68.637 39.916-69.085-39.916 68.637-39.924 69.085 39.924z" fill="#EAEAF4"/>
<path d="m132.32 94.34-0.295 103.05-57.769 33.601 0.2954-103.05 57.769-33.602z" fill="#D3D3DD"/>
<path d="m74.547 127.94-0.2954 103.05-58.144-33.601 0.2875-103.05 58.152 33.602z" fill="#E0DEE9"/>
<path d="m132.32 94.34-57.769 33.602-58.152-33.602 57.769-33.602 58.153 33.602z" fill="#EAEAF4"/>
<path d="m31.384 139.4-0.0319 10.686-9.2794-5.363 0.0239-10.687 9.2874 5.364z" fill="#2A313F"/>
<path d="m31.424 124.54-0.024 10.678-9.2874-5.363 0.0319-10.678 9.2795 5.363z" fill="#2A313F"/>
<path d="m31.472 109.67-0.0319 10.687-9.2875-5.363 0.032-10.687 9.2874 5.363z" fill="#2A313F"/>
<path d="m68.901 175.97-0.024 10.686-33.317-19.254 0.024-10.687 33.317 19.255z" fill="#2A313F"/>
<path d="m68.949 161.1-0.032 10.687-33.316-19.255 0.0319-10.687 33.317 19.255z" fill="#2A313F"/>
<path d="m68.989 146.25-0.0319 10.678-33.317-19.255 0.032-10.678 33.316 19.255z" fill="#2A313F"/>
<path d="m69.029 131.38-0.032 10.686-33.308-19.254 0.0239-10.687 33.317 19.255z" fill="#2A313F"/>
<path d="m31.304 169.12-0.0319 10.686-9.2874-5.363 0.0319-10.686 9.2874 5.363z" fill="#2A313F"/>
<path d="m31.344 154.26-0.032 10.687-9.2874-5.363 0.032-10.687 9.2874 5.363z" fill="#2A313F"/>
<path d="m68.861 190.83-0.032 10.687-33.316-19.255 0.0319-10.686 33.317 19.254z" fill="#2A313F"/>
<path d="m89.208 140.99 0.032 10.687-9.2875 5.363-0.0319-10.687 9.2874-5.363z" fill="#2A313F"/>
<path d="m89.169 126.13 0.0319 10.686-9.2954 5.363-0.024-10.678 9.2875-5.371z" fill="#2A313F"/>
<path d="m126.89 163.88 0.032 10.678-33.317 19.255-0.032-10.679 33.317-19.254z" fill="#2A313F"/>
<path d="m126.85 149.02 0.024 10.678-33.309 19.255-0.032-10.686 33.317-19.247z" fill="#2A313F"/>
<path d="m126.81 134.15 0.032 10.679-33.317 19.254-0.0319-10.678 33.317-19.255z" fill="#2A313F"/>
<path d="m126.77 119.29 0.032 10.678-33.317 19.255-0.032-10.687 33.317-19.246z" fill="#2A313F"/>
<path d="m126.73 104.43 0.032 10.678-33.317 19.255-0.0319-10.686 33.317-19.247z" fill="#2A313F"/>
<path d="m89.336 185.59 0.0319 10.679-9.2954 5.363-0.024-10.679 9.2875-5.363z" fill="#2A313F"/>
<path d="m89.296 170.72 0.0319 10.686-9.2954 5.363-0.0319-10.686 9.2954-5.363z" fill="#2A313F"/>
<path d="m89.248 155.86 0.0319 10.678-9.2874 5.363-0.032-10.678 9.2875-5.363z" fill="#2A313F"/>
<path d="m132.04 189.08-0.024 8.313-57.761 33.601 0.0159-8.512 57.769-33.402z" fill="#9052FE"/>
<path d="m74.276 222.48-0.0239 8.512-58.144-33.601 0.024-8.513 58.144 33.602z" fill="#9052FE"/>
<path d="m73.892 95.707h0.6548l3.3061 1.9023c-2.3615 0.7152-4.8816 0.7152-7.243 0l3.2821-1.9023z" fill="#2A313F"/>
<path d="m59.533 83.59c8.425-4.0763 20.763-4.0763 29.236 0l-2.9787 1.7345c-6.8038-3.1412-16.498-3.1412-23.254 0l-3.0026-1.7345z" fill="#2A313F"/>
<path d="m64.685 86.539c6.1086-2.4854 12.945-2.4854 19.054 0l-3.0027 1.7424c-4.2047-1.5583-8.828-1.5583-13.033 0l-3.0186-1.7424z" fill="#2A313F"/>
<path d="m70.562 89.96c2.3637-0.7191 4.8875-0.7191 7.2511 0l-3.2822 1.9103c-0.2233-0.016-0.4474-0.016-0.6708 0l-3.2981-1.9103z" fill="#2A313F"/>
<path d="m77.51 93.98c0.0199-0.1271 0.0199-0.2565 0-0.3837l3.2821-1.9102c0.2918 0.2659 0.525 0.5899 0.6845 0.9511 0.1595 0.3613 0.2419 0.752 0.2419 1.147s-0.0824 0.7856-0.2419 1.1469-0.3927 0.6853-0.6845 0.9512l-3.2821-1.9023z" fill="#2A313F"/>
<path d="m83.723 97.537c2.6752-2.2619 2.6592-5.2832 0-7.5532l3.0026-1.7424c4.3043 3.2451 4.3283 7.801 0.0559 11.046l-3.0585-1.7505z" fill="#2A313F"/>
<path d="m64.684 90.008c-2.6752 2.27-2.6513 5.2913 0.0479 7.5533l-3.0026 1.7504c-4.3043-3.2451-4.3283-7.801-0.0639-11.046l3.0186 1.7424z" fill="#2A313F"/>
<path d="m88.849 100.53c5.3904-3.925 5.3505-9.5519-0.0719-13.476l2.9787-1.7344c7.0514 4.8916 7.0993 12.053 0.0959 16.945l-3.0027-1.734z" fill="#2A313F"/>
<path d="m62.632 102.25c6.7959 3.133 16.491 3.133 23.254 0l2.9947 1.734c-8.417 4.077-20.763 4.077-29.228 0l2.9787-1.734z" fill="#2A313F"/>
<path d="m59.566 87.051c-5.3824 3.9245-5.3504 9.5434 0.0799 13.476l-2.9468 1.734c-7.0594-4.8917-7.0993-12.053-0.1038-16.945l2.9707 1.7344z" fill="#2A313F"/>
<path d="m67.727 99.288c4.202 1.5583 8.8228 1.5583 13.025 0l3.0266 1.7503c-6.1086 2.485-12.945 2.485-19.054 0l3.0026-1.7503z" fill="#2A313F"/>
<path d="m70.898 93.597c-0.0199 0.1272-0.0199 0.2566 0 0.3837l-3.2821 1.9103c-0.2921-0.2666-0.5253-0.5913-0.6849-0.9533-0.1596-0.3619-0.242-0.7532-0.242-1.1488 0-0.3957 0.0824-0.7869 0.242-1.1489 0.1596-0.3619 0.3928-0.6866 0.6849-0.9532l3.2821 1.9102z" fill="#2A313F"/>
<path d="m266.72 163.78c0.928 0.6 1.701 1.411 2.256 2.366 0.555 0.956 0.877 2.029 0.939 3.133v5.443c0 2.022-1.438 2.837-3.195 1.814l-43.474-25.113c-0.928-0.6-1.7-1.411-2.255-2.367-0.556-0.955-0.877-2.029-0.939-3.132v-5.443c0-2.023 1.445-2.838 3.194-1.823l43.474 25.122z" fill="#D5D7E2"/>
<path d="m175.24 287.66c16.746 0 30.322-7.844 30.322-17.521 0-9.676-13.576-17.52-30.322-17.52s-30.322 7.844-30.322 17.52c0 9.677 13.576 17.521 30.322 17.521z" fill="#D6D8E5" opacity=".4"/>
<path d="m150.13 133.68c-0.359 3.133-4.096 16.657-3.298 21.285 0.799 4.628 13.576 12.389 13.576 12.389l1.773-7.937-7.076-6.93 1.917-13.132-6.892-5.675z" fill="#FFCEA9"/>
<path d="m160 120.35c-1.243-0.575-2.652-0.673-3.962-0.277s-2.429 1.26-3.146 2.427c-1.876 3.117-3.825 13.795-3.992 15.618 0 0 2.635 3.645 6.588 3.037l4.512-20.805z" fill="#EDEDED"/>
<path d="m174.58 271.13c2.789 0.78 5.773 0.421 8.297-0.999 1.997 0.064 12.777-4.564 14.263-0.679 1.286 3.405-3.394 6.554-5.894 7.193-5.454 1.319-9.487 4.045-11.683 4.508-1.597 0.344-3.745 0.568-5.047-0.711-1.597-1.575-1.461-7.281 0.064-9.312z" fill="#38226D"/>
<path d="m179.52 280.18c2.197-0.463 6.229-3.197 11.684-4.508 2.1-0.511 5.709-2.805 6.069-5.539 0.487 3.134-3.738 5.915-6.069 6.483-5.455 1.318-9.487 4.044-11.684 4.508-1.597 0.343-3.745 0.567-5.047-0.712-0.335-0.375-0.579-0.824-0.71-1.311 0.809 0.617 1.751 1.037 2.751 1.224 0.999 0.187 2.029 0.138 3.006-0.145z" fill="#9C73FF"/>
<path d="m157.06 263.26c2.774 0.766 5.738 0.407 8.25-1 1.996 0.064 12.777-4.571 14.262-0.679 1.286 3.405-3.386 6.554-5.885 7.194-5.463 1.318-9.495 4.044-11.691 4.508-1.598 0.343-3.746 0.567-5.047-0.72-1.55-1.582-1.414-7.273 0.111-9.303z" fill="#38226D"/>
<path d="m162 272.31c2.196-0.463 6.229-3.197 11.691-4.508 2.092-0.511 5.702-2.805 6.061-5.539 0.487 3.134-3.729 5.915-6.061 6.483-5.462 1.318-9.495 4.044-11.691 4.508-1.597 0.343-3.745 0.567-5.047-0.72-0.337-0.371-0.581-0.818-0.711-1.303 0.809 0.618 1.751 1.037 2.751 1.224s2.03 0.138 3.007-0.145z" fill="#9C73FF"/>
<path d="m156.84 233.89c0.465-4.017 1.299-7.982 2.492-11.846 0 0-0.743-10.214-1.11-19.902-0.423-10.998-4.24-20.677-1.23-29.445l33.868 7.545s-2.053 43.833-2.5 49.14c-0.251 4.131-0.761 8.242-1.525 12.309-1.549 8.504-4.057 28.774-4.057 28.774-3.585 2.078-8.289 0.927-8.289 0.927s0.255-25.577 0.487-31.731c0.28-7.482 0.511-6.914 0.511-6.914l-1.118-18.647-0.735-9.28s-0.942 6.81-1.549 12.892c-0.535 5.3-1.813 10.103-3.242 19.982-1.238 8.569-3.25 25.769-3.25 25.769-3.586 2.086-8.449 0.36-8.449 0.36s-1.27-22.508-0.304-29.933z" fill="#8C50FF"/>
<path d="m161.79 120.54c2.579 0.12 4.504 0.799 4.791 0 0.281-1.332 0.478-2.68 0.591-4.037-0.295-0.751-0.551-1.558-0.551-1.558-3.242-1.991-4.264-5.499-4.696-9.592-0.726-6.9775 3.043-13.084 10.015-13.819 6.556-0.6794 11.379 3.9324 12.665 10.262 0.695 3.126 2.076 9.032 0.208 14.172-1.039 2.877-2.396 5.155-3.73 5.595-1.299-0.038-2.595-0.153-3.881-0.344 0 0-0.351 1.934-0.591 3.197-0.239 1.263-0.144 1.902 2.332 3.429s-3.745 4.66-7.802 4.356-8.593-2.693-9.83-5.363c-1.414-2.925-1.294-6.386 0.479-6.298z" fill="#FFCEA9"/>
<path d="m165.53 120.92c-0.719 1.791 1.102 3.997 5.949 5.499 4.848 1.503 5.279-0.439 5.279-0.439s7.107 3.197 9.423 4.859c2.915 2.038 4.201 7.929 4.592 17.872 0.455 11.51 0.495 28.583 0.112 31.532 0 0-5.439 5.419-12.394 4.852-6.956-0.568-18.671-6.738-21.506-11.494 0.072-10.095 1.254-11.734-0.375-17.584-3.737-13.308-5.71-18.759-3.889-27.599 1.493-7.29 3.593-8.193 6.468-8.129 2.124 0.098 4.24 0.309 6.341 0.631z" fill="#F4F4F4"/>
<path d="m218.42 149.71c-5.742-1.334-13.209-1.998-15.756-3.724-6.165-4.18-11.236-8.393-14.973-10.551-4.409-2.549-6.165-2.006-8.545-1.151-2.795 1.015-3.011 4.332 1.765 8.321 5.654 4.708 10.126 7.569 17.88 12.189 2.028 1.207 24.58 3.317 30.553 3.549 1.597 0.064 2.811 0.176 5.894 0.295 3.082 0.12 6.652-0.479 8.92-1.694s2.899-2.014 2.851-2.582c-0.056-0.711-0.711-0.895-1.813-0.455-1.692 0.821-3.518 1.33-5.39 1.502 0 0 2.459-0.799 3.881-1.462 1.27-0.558 2.46-1.284 3.537-2.158 1.022-0.864 0.839-2.838-0.279-2.398-1.118 0.439-1.877 1.039-3.993 1.942-1.124 0.481-2.301 0.828-3.506 1.031 1.394-0.69 2.729-1.492 3.993-2.398 1.045-0.668 1.877-1.622 2.396-2.749 0.263-0.592-0.2-1.695-1.518-0.991-1.189 0.623-2.395 1.918-4.871 2.765-1.781 0.608-3.122 0.799-2.979 0.44 0.144-0.36 1.214-0.632 2.348-1.815s1.478-2.893 0.799-3.453c-0.679-0.559-0.567-0.439-1.861 0.552-1.293 0.991-2.755 1.471-4.464 3.013-1.088 1.149-2.439 2.016-3.937 2.526-1.964 0.671-5.478 0.719-10.932-0.544z" fill="#FFCEA9"/>
<path d="m176.78 131.84c2.707-2.757 5.893-3.005 10.717 0.592 4.823 3.597 8.624 6.674 8.624 6.674 0.11 2.652-0.799 5.246-2.539 7.249-2.979 3.629-5.59 2.878-5.59 2.878s-4.664-4.068-7.778-6.89c-3.115-2.821-6.78-7.106-3.434-10.503z" fill="#EDEDED"/>
<path d="m184.42 100.9s6.029-9.1675-7.028-11.038c-9.415-1.3428-15.468 4.7078-16.163 11.286-0.67 6.274 3.195 12.789 5.982 15.378 1.357 0.488 4.288 0.799 8.137-0.983 0.153-1.709 0.211-3.424 0.176-5.139 0 0-4.584-9.672 8.896-9.504z" fill="#3A2C6D"/>
<g opacity=".4">
<path d="m384.91 288.86c9.447 5.459 17.465 4.891 8.712 11.341-22.472 16.553-33.276 13.9-42.724 8.441l-41.11-23.763c-9.455-5.459-3.802-17.584 5.59-23.027 9.391-5.443 18.966-2.214 28.421 3.253l41.111 23.755z" fill="#D6D8E5" opacity=".4"/>
</g>
<path d="m398.94 227.82c0 0.248-0.04 0.504-0.088 0.76-0.04 0.207-0.091 0.413-0.152 0.615-0.063 0.24-0.119 0.48-0.207 0.719-0.088 0.24-0.16 0.392-0.248 0.592s-0.215 0.503-0.351 0.751-0.216 0.36-0.32 0.536c-0.103 0.176-0.359 0.567-0.567 0.839-0.207 0.272-0.407 0.535-0.638 0.799-0.056 0.056-0.104 0.12-0.16 0.184-0.312 0.344-0.655 0.671-1.014 0.999-0.232 0.208-0.487 0.408-0.743 0.616-0.256 0.207-0.431 0.359-0.671 0.527-0.239 0.168-0.575 0.392-0.87 0.584-0.296 0.191-0.591 0.399-0.919 0.583-0.737 0.426-1.497 0.813-2.276 1.159l-0.686 0.288c-0.613 0.266-1.243 0.506-1.893 0.719-0.232 0.08-0.463 0.168-0.695 0.24-0.407 0.128-0.798 0.24-1.246 0.36-0.447 0.12-0.622 0.176-0.95 0.255-0.327 0.08-0.886 0.192-1.333 0.28-0.304 0.064-0.599 0.136-0.911 0.184-0.902 0.16-1.821 0.288-2.739 0.384l-0.862 0.072c-0.543 0.048-1.086 0.088-1.598 0.111h-1.046-1.317-1.11c-0.368 0-0.799 0-1.222-0.063l-1.118-0.088-1.198-0.136-1.078-0.152-1.286-0.224-0.998-0.2c-0.503-0.112-0.998-0.24-1.493-0.367l-0.799-0.224c-0.886-0.264-1.749-0.552-2.587-0.879-0.416-0.16-0.799-0.336-1.214-0.512-0.208-0.096-0.423-0.176-0.623-0.272-0.607-0.295-1.206-0.599-1.773-0.927l-41.126-23.763c-4.752-2.749-7.124-6.354-7.116-9.959l-0.175 64.415c0 3.604 2.395 7.193 7.115 9.951l41.055 23.778c0.575 0.328 1.165 0.632 1.772 0.919 0.2 0.096 0.424 0.184 0.631 0.272 0.36 0.16 0.711 0.328 1.078 0.472l0.128 0.048c0.839 0.327 1.701 0.615 2.588 0.871l0.207 0.072 0.623 0.152c0.495 0.128 0.99 0.256 1.493 0.367 0.136 0 0.264 0.072 0.4 0.096l0.607 0.104c0.423 0.08 0.846 0.16 1.277 0.224l0.511 0.088c0.184 0 0.376 0.04 0.567 0.064 0.4 0.056 0.799 0.096 1.206 0.136l0.567 0.064h0.543l1.222 0.064h3.474c0.551 0 1.086-0.064 1.597-0.104l0.663-0.048h0.199c0.927-0.096 1.837-0.224 2.748-0.384h0.127c0.264-0.048 0.511-0.12 0.799-0.168 0.447-0.085 0.894-0.181 1.342-0.287l0.942-0.256c0.415-0.112 0.838-0.224 1.246-0.352l0.263-0.08c0.152-0.048 0.28-0.112 0.431-0.16 0.645-0.223 1.275-0.463 1.893-0.719l0.695-0.296c0.798-0.351 1.549-0.735 2.276-1.151l0.287-0.176c0.224-0.135 0.415-0.279 0.623-0.415s0.599-0.376 0.87-0.576c0.272-0.199 0.456-0.359 0.671-0.535 0.216-0.176 0.511-0.4 0.743-0.616l0.152-0.12c0.303-0.287 0.591-0.575 0.862-0.871l0.16-0.192c0.16-0.183 0.327-0.359 0.471-0.543s0.104-0.168 0.168-0.248c0.207-0.28 0.391-0.559 0.567-0.847 0.072-0.112 0.167-0.232 0.231-0.352 0.034-0.059 0.064-0.12 0.088-0.184 0.132-0.243 0.249-0.494 0.352-0.751 0.063-0.144 0.151-0.288 0.207-0.432 0.056-0.143 0-0.103 0-0.151 0.088-0.24 0.144-0.488 0.208-0.728 0.056-0.16 0.104-0.322 0.144-0.487v-0.128c0-0.256 0.063-0.504 0.079-0.76 0.016-0.255 0.056-0.327 0.064-0.495v-0.216l0.184-64.406c0.011 0.229 0.011 0.458 0 0.687z" fill="#D5D7E2"/>
<path d="m391.88 217.18c9.439 5.459 9.495 14.315 0.104 19.774s-24.668 5.467-34.115 0l-41.127-23.763c-9.439-5.459-9.495-14.315-0.096-19.782 9.4-5.467 24.66-5.459 34.108 0l41.126 23.771z" fill="#E9EAF4"/>
<path d="m330.49 267.96 5.59-15.186c-1.66-2.183-2.616-4.821-2.739-7.561 0-3.117 1.741-4.796 4.153-4.388 0.761 0.124 1.491 0.395 2.148 0.799 3.466 2.006 6.277 6.85 6.261 10.846 0 2.486-1.11 4.037-2.779 4.372l4.184 16.434 1.31 5.179-18.128-10.495z" fill="#3A4151"/>
<path d="m334.29 265.74 5.59-15.186c-1.667-2.179-2.623-4.819-2.739-7.561-8e-3 -0.737 0.111-1.47 0.351-2.166 0.761 0.124 1.491 0.395 2.148 0.799 3.466 2.006 6.277 6.85 6.261 10.846 0 2.486-1.11 4.037-2.779 4.372l4.185 16.434-13.017-7.538z" fill="#323944"/>
<path d="m341.14 170.7c-0.382 0.234-0.742 0.501-1.078 0.799l-0.176 0.16c-0.301 0.303-0.569 0.638-0.798 0.999l-0.216 0.351-0.048 0.088c-0.043 0.063-0.08 0.13-0.111 0.2-0.127 0.237-0.237 0.483-0.328 0.736v0.048c-0.216 0.598-0.358 1.221-0.423 1.854v0.072c-0.046 0.35-0.068 0.702-0.064 1.055l-0.056 21.58v7.778c-1.844 0.927-3.886 1.393-5.949 1.358v-27.231c3e-3 -0.566 0.054-1.13 0.151-1.687 0-0.112 0.04-0.232 0.072-0.351 0.031-0.157 0.071-0.312 0.12-0.464v-0.072c0.044-0.141 0.094-0.28 0.152-0.416-8e-3 -0.023-8e-3 -0.048 0-0.072 0.048-0.111 0.088-0.215 0.136-0.319 0.024-0.092 0.059-0.18 0.103-0.264 0.029-0.037 0.053-0.077 0.072-0.12 0.1-0.215 0.217-0.42 0.352-0.615h0.04c0.118-0.177 0.246-0.348 0.383-0.512 0.144-0.16 0.287-0.32 0.439-0.471 0.046-0.066 0.106-0.121 0.176-0.16 0.162-0.152 0.332-0.293 0.511-0.424 0.152-0.125 0.318-0.232 0.495-0.32 0.05-0.043 0.104-0.083 0.16-0.12l5.885-3.46z" fill="#323944"/>
<path d="m384.82 203.47v0.735l-0.055 21.365v7.857c-1.829 0.897-3.842 1.349-5.878 1.319h-0.072v-10.51l0.04-16.562c3e-3 -0.876-0.045-1.751-0.144-2.621-0.048-0.424-0.103-0.863-0.175-1.303v-0.192c-0.056-0.336-0.112-0.687-0.192-1.023 8e-3 -0.048 8e-3 -0.096 0-0.144-0.176-0.847-0.383-1.71-0.631-2.574 0-0.119-0.072-0.223-0.104-0.335-0.111-0.384-0.231-0.752-0.359-1.127-0.128-0.376-0.296-0.879-0.455-1.319-0.16-0.44-0.312-0.799-0.471-1.199-0.2-0.528-0.44-1.055-0.671-1.599-0.031-0.055-0.055-0.114-0.072-0.175 0 0 0-0.04-0.048-0.072-0.423-0.935-0.886-1.887-1.397-2.822-0.192-0.383-0.4-0.751-0.615-1.127-0.28-0.503-0.559-0.999-0.863-1.494-0.303-0.496-0.679-1.04-1.014-1.551-0.16-0.264-0.319-0.528-0.495-0.799l-0.176-0.264c-0.029-0.047-0.064-0.089-0.104-0.128-1.214-1.785-2.52-3.506-3.913-5.155-0.088-0.112-0.191-0.216-0.279-0.32-0.647-0.799-1.302-1.511-1.989-2.222-0.092-0.114-0.194-0.221-0.303-0.32-0.351-0.367-0.703-0.735-1.07-1.103-0.368-0.367-0.847-0.847-1.286-1.255-0.663-0.615-1.318-1.231-2.004-1.83-1.182-1.023-2.396-1.993-3.642-2.909l-0.727-0.528c-1.343-0.967-2.734-1.866-4.168-2.694-0.487-0.279-0.95-0.527-1.422-0.799-0.471-0.272-1.054-0.543-1.597-0.799-0.359-0.176-0.726-0.336-1.078-0.496l-0.455-0.207-0.543-0.216c-0.974-0.408-1.941-0.8-2.891-1.055-0.037-9e-3 -0.074-0.014-0.112-0.016l-0.351-0.088c-0.16-0.064-0.319-0.088-0.463-0.136s-0.399-0.12-0.583-0.16h-0.048l-0.391-0.088c-0.352-0.088-0.679-0.16-1.015-0.216-0.183-0.048-0.391-0.072-0.582-0.104-0.035-7e-3 -0.07-7e-3 -0.104 0l-0.711-0.119h-0.168c-0.439-0.064-0.882-0.104-1.325-0.12-0.281-0.032-0.564-0.048-0.847-0.048h-0.423c-0.432-4e-3 -0.864 0.018-1.294 0.064h-0.407c-0.137 7e-3 -0.273 0.023-0.407 0.048-0.124 9e-3 -0.247 0.028-0.368 0.056h-0.04c-0.103 0-0.207 0.047-0.311 0.055-0.248 0.048-0.495 0.088-0.743 0.16-0.039-6e-3 -0.08-6e-3 -0.12 0-0.069 1e-3 -0.137 0.017-0.199 0.048-0.18 0.039-0.356 0.092-0.527 0.16-0.138 0.028-0.275 0.065-0.408 0.112h-0.063c-0.016 0 0 0 0 0-0.295 0.099-0.583 0.217-0.863 0.352l-0.104 0.04c-0.185 0.083-0.367 0.177-0.543 0.279-0.122 0.048-0.24 0.107-0.351 0.176l5.965-3.469c0.599-0.343 1.227-0.632 1.877-0.863 0.023-7e-3 0.048-7e-3 0.072 0 0.521-0.183 1.055-0.33 1.597-0.439l0.176-0.048h0.199c0.368-0.072 0.751-0.112 1.126-0.16h0.328c0.447 0 0.902-0.056 1.381-0.056h0.24 1.118 0.056c0.191 0 0.391 0.048 0.583 0.056l0.75 0.08h0.072c0.248 0 0.495 0.088 0.759 0.12 0.263 0.032 0.367 0.056 0.551 0.103h0.064c0.439 0.088 0.886 0.192 1.357 0.304 0.44 0.104 0.887 0.232 1.326 0.368 0.023-7e-3 0.048-7e-3 0.072 0 0.155 0.04 0.307 0.09 0.455 0.152 0.295 0.088 0.575 0.176 0.847 0.279 0.055 0.012 0.109 0.03 0.159 0.056 0.191 0.056 0.378 0.126 0.559 0.208 0.216 0.088 0.439 0.16 0.671 0.248 0.085 0.044 0.173 0.081 0.264 0.112l0.598 0.264c0.176 0.072 0.352 0.136 0.528 0.223 0.137 0.055 0.271 0.119 0.399 0.192 0.213 0.083 0.421 0.179 0.623 0.288 0.135 0.056 0.263 0.12 0.399 0.192s0.367 0.176 0.535 0.264 0.415 0.215 0.615 0.335c0.103 0.039 0.202 0.087 0.295 0.144l1.142 0.632c0.112 0.072 0.232 0.128 0.336 0.207 0.511 0.288 1.006 0.6 1.501 0.92 0.256 0.143 0.503 0.319 0.751 0.479 0.12 0.092 0.246 0.177 0.375 0.256l0.383 0.256c0.512 0.351 1.007 0.703 1.51 1.071l0.463 0.367c0.144 0.104 0.295 0.2 0.439 0.32s0.407 0.312 0.615 0.488c0.527 0.391 1.022 0.799 1.533 1.239l0.16 0.143c0.099 0.079 0.192 0.165 0.28 0.256 0.351 0.288 0.702 0.584 1.054 0.903 0.351 0.32 0.758 0.688 1.126 1.055 0.074 0.056 0.141 0.12 0.199 0.192 0.041 0.021 0.077 0.051 0.104 0.088 0.469 0.443 0.924 0.89 1.366 1.343l0.694 0.735c0.104 0.096 0.208 0.216 0.312 0.32s0.176 0.176 0.263 0.28c0.392 0.423 0.799 0.879 1.182 1.311 0.192 0.207 0.368 0.431 0.543 0.631l0.264 0.32c0.104 0.12 0.215 0.24 0.303 0.351 0.4 0.472 0.759 0.928 1.126 1.391 0.136 0.176 0.264 0.352 0.408 0.528 0.143 0.176 0.223 0.28 0.327 0.423l0.423 0.56c0.352 0.479 0.687 0.983 1.038 1.463l0.392 0.567 0.103 0.152c0.208 0.288 0.384 0.615 0.583 0.903 0.384 0.616 0.799 1.215 1.142 1.814l0.136 0.224c0.423 0.688 0.799 1.391 1.182 2.086 0 0.064 0.056 0.12 0.088 0.176 0.042 0.072 0.079 0.147 0.112 0.224 0.175 0.336 0.351 0.655 0.519 0.991 0.167 0.336 0.335 0.68 0.495 1.015 0.088 0.184 0.16 0.376 0.247 0.552 0.03 0.056 0.054 0.115 0.072 0.176 0.048 0.088 0.088 0.191 0.136 0.279 0.144 0.32 0.272 0.632 0.407 0.952 0.136 0.319 0.248 0.615 0.376 0.919 0.064 0.16 0.119 0.327 0.175 0.487 0.015 0.056 0.036 0.11 0.064 0.16 0.032 0.098 0.069 0.194 0.112 0.288 0.104 0.328 0.224 0.631 0.327 0.943 0.104 0.312 0.2 0.623 0.288 0.935 0.048 0.144 0.088 0.288 0.136 0.44s0 0.104 0.04 0.16c0.04 0.11 0.075 0.222 0.103 0.335 0.088 0.32 0.176 0.632 0.248 0.935 0.072 0.304 0.144 0.6 0.208 0.896 0 0.128 0.056 0.279 0.087 0.407-3e-3 0.046-3e-3 0.091 0 0.136 0 0.112 0.048 0.232 0.064 0.336 0.056 0.288 0.104 0.583 0.16 0.863s0.072 0.552 0.12 0.799c0.048 0.248 0 0.336 0.04 0.512 7e-3 0.034 7e-3 0.07 0 0.104 4e-3 0.069 4e-3 0.138 0 0.208 0 0.263 0.048 0.535 0.064 0.799s0.111 0.615 0.127 0.863z" fill="#323944"/>
<path d="m378.87 207.67-0.04 16.562v10.51c-3.569 0-6.62-1.279-7.985-3.077v-4.372l0.071-24.234c0-8.193-8.888-20.278-19.461-26.377-4.751-2.749-9.175-3.9-12.617-3.581-1.231 0.087-2.431 0.43-3.522 1.008-0.056 0.036-0.109 0.076-0.16 0.119-0.176 0.089-0.342 0.196-0.495 0.32-0.183 0.125-0.354 0.267-0.511 0.424-0.07 0.039-0.13 0.094-0.176 0.16-0.164 0.139-0.311 0.297-0.439 0.471-0.146 0.156-0.275 0.327-0.383 0.512h-0.04c-0.134 0.195-0.252 0.401-0.351 0.615-0.075 0.12-0.134 0.249-0.176 0.384-0.06 0.099-0.106 0.207-0.136 0.32-8e-3 0.023-8e-3 0.048 0 0.071-0.067 0.158-0.121 0.321-0.16 0.488-0.049 0.152-0.089 0.307-0.119 0.464-0.031 0.115-0.055 0.233-0.072 0.351-0.098 0.557-0.148 1.121-0.152 1.687v27.231c-3.522 0-6.564-1.215-7.986-2.973v-4.58l-0.056-24.306c0-5.691 2.252-9.655 5.99-11.63 0.176-0.102 0.357-0.196 0.543-0.279l0.104-0.04c0.279-0.135 0.567-0.253 0.862-0.352 0.152-0.063 0.31-0.111 0.471-0.144 0.171-0.068 0.347-0.121 0.527-0.16 0.062-0.031 0.13-0.047 0.2-0.048 0.039-6e-3 0.08-6e-3 0.12 0l0.367-0.08c0.123-0.034 0.249-0.061 0.375-0.08 0.104 0 0.208-0.04 0.312-0.056h0.04c0.121-0.027 0.243-0.046 0.367-0.055 0.135-0.025 0.271-0.041 0.407-0.048 0.136-0.013 0.272-0.013 0.408 0 0.429-0.046 0.861-0.068 1.293-0.064h0.423c0.283 0 0.566 0.016 0.847 0.048 0.444 0.016 0.886 0.056 1.326 0.119 0.295 0.027 0.588 0.069 0.878 0.128 0.034-7e-3 0.07-7e-3 0.104 0 0.192 0 0.399 0.056 0.583 0.104 0.335 0.056 0.663 0.128 1.014 0.216s0.671 0.16 1.022 0.264c0.144 0.048 0.304 0.072 0.463 0.136l0.472 0.128c0.95 0.295 1.916 0.647 2.89 1.055 0.344 0.128 0.663 0.279 0.999 0.423 0.335 0.144 0.718 0.32 1.078 0.496l0.942 0.471c0.2 0.112 0.423 0.216 0.623 0.32 0.471 0.264 0.934 0.512 1.421 0.799 1.434 0.828 2.826 1.727 4.169 2.694l0.727 0.528c1.245 0.916 2.459 1.886 3.641 2.909 0.687 0.599 1.342 1.215 2.005 1.83 0.439 0.408 0.862 0.8 1.285 1.255 0.423 0.456 0.719 0.735 1.07 1.103 0.11 0.099 0.211 0.206 0.304 0.32 0.687 0.711 1.341 1.463 1.988 2.222 0.088 0.104 0.192 0.208 0.28 0.32 1.393 1.649 2.699 3.37 3.913 5.155 0.102 0.124 0.195 0.255 0.279 0.392 0.527 0.799 1.022 1.55 1.51 2.342 0.303 0.495 0.583 0.991 0.862 1.494 0.216 0.376 0.423 0.743 0.615 1.127 0.511 0.935 0.974 1.886 1.397 2.822 0.048 0.088 0.088 0.175 0.12 0.247 0.232 0.528 0.471 1.055 0.671 1.599 0.16 0.392 0.319 0.799 0.471 1.199s0.32 0.879 0.455 1.319c0.136 0.439 0.248 0.743 0.36 1.127 0 0.112 0.072 0.215 0.104 0.335 0.247 0.864 0.471 1.727 0.63 2.574 8e-3 0.048 8e-3 0.096 0 0.144 0.08 0.336 0.136 0.687 0.192 1.023v0.192c0.072 0.439 0.128 0.863 0.176 1.303 0.139 0.846 0.229 1.7 0.271 2.557z" fill="#3A4151"/>
<path d="m270.76 99.647c0.4 0.2638 0.734 0.6186 0.972 1.0346 0.239 0.417 0.376 0.884 0.401 1.363l-0.112 39.908c0 3.517-2.507 4.948-5.59 3.198l-38.834-22.476c-1.611-1.051-2.951-2.467-3.913-4.134-0.961-1.666-1.517-3.536-1.621-5.458l0.111-39.908c0-0.8792 0.631-1.2389 1.39-0.7993l4.168 2.3979v-6.3943c0-12.325 8.785-17.312 19.494-11.118s19.405 21.253 19.365 33.57v6.3942l4.169 2.4219zm-12.498-7.1936v-6.3942c0-7.0497-4.943-15.65-11.06-19.183-6.117-3.5329-11.124-0.6874-11.14 6.3543v6.3942l22.208 12.789-8e-3 0.0399zm-7.027 29.294-0.855-9.592c1.429-0.368 2.284-1.758 2.284-3.82-0.101-1.923-0.656-3.794-1.617-5.461-0.962-1.667-2.304-3.0822-3.917-4.1308-3.059-1.7664-5.59-0.3437-5.59 3.1968 0.09 2.326 0.877 4.571 2.26 6.443l-0.903 8.552c-0.027 0.502 0.089 1.001 0.336 1.439 0.241 0.462 0.599 0.853 1.038 1.135l5.59 3.197c0.149 0.108 0.326 0.172 0.51 0.183 0.184 0.012 0.367-0.03 0.528-0.119 0.143-0.128 0.251-0.291 0.313-0.473 0.061-0.183 0.075-0.378 0.038-0.566" fill="#D5D7E2"/>
<path d="m267.86 187.41c0.595 0.376 1.092 0.888 1.45 1.493 0.358 0.606 0.567 1.289 0.61 1.991v5.595c0 1.279-0.918 1.799-2.028 1.159l-45.886-26.496c-0.587-0.383-1.076-0.898-1.427-1.505s-0.554-1.288-0.594-1.988v-5.595c0-1.287 0.919-1.798 2.029-1.151l45.846 26.497z" fill="#D5D7E2"/>
</g>
<defs>
<clipPath id="a">
<rect transform="translate(0 .82404)" width="399" height="312" fill="#fff"/>
</clipPath>
</defs>
</svg>
