<?xml version="1.0" encoding="UTF-8"?>
<svg fill="none" viewBox="0 0 431 486" xmlns="http://www.w3.org/2000/svg">
<g clip-path="url(#a)">
<path d="m431 232.8-0.02 8.728-87.322 50.729 0.029-8.729 87.313-50.728z" fill="#D3D3DD"/>
<path d="m343.69 283.53-0.029 8.729-87.886-50.729 0.03-8.728 87.885 50.728z" fill="#E0DEE9"/>
<path d="m431 232.8-87.312 50.728-87.886-50.728 87.312-50.739 87.886 50.739z" fill="#6E6E9C"/>
<path d="m417.38 100.5-0.37 130.96-73.488 42.7 0.37-130.96 73.488-42.7z" fill="#D3D3DD"/>
<path d="m343.89 143.2-0.369 130.96-73.974-42.7 0.369-130.96 73.974 42.7z" fill="#E0DEE9"/>
<path d="m417.38 100.5-73.487 42.7-73.974-42.7 73.497-42.69 73.964 42.69z" fill="#6E6E9C"/>
<path d="m288.98 157.76-0.029 13.578-11.812-6.813 0.038-13.579 11.803 6.814z" fill="#2A313F"/>
<path d="m289.04 138.88-0.038 13.569-11.813-6.823 0.039-13.569 11.812 6.823z" fill="#2A313F"/>
<path d="m289.1 119.98-0.049 13.579-11.802-6.814 0.029-13.579 11.822 6.814z" fill="#2A313F"/>
<path d="m336.72 204.23-0.039 13.579-42.387-24.465 0.039-13.579 42.387 24.465z" fill="#2A313F"/>
<path d="m336.77 185.34-0.029 13.579-42.387-24.465 0.039-13.579 42.377 24.465z" fill="#2A313F"/>
<path d="m336.82 166.46-0.039 13.569-42.388-24.465 0.049-13.569 42.378 24.465z" fill="#2A313F"/>
<path d="m336.87 147.57-0.03 13.579-42.387-24.465 0.039-13.579 42.378 24.465z" fill="#2A313F"/>
<path d="m288.88 195.53-0.029 13.578-11.812-6.813 0.039-13.579 11.802 6.814z" fill="#2A313F"/>
<path d="m288.93 176.65-0.039 13.579-11.812-6.823 0.039-13.579 11.812 6.823z" fill="#2A313F"/>
<path d="m336.66 223.11-0.039 13.579-42.378-24.465 0.039-13.579 42.378 24.465z" fill="#2A313F"/>
<path d="m362.55 159.79 0.039 13.579-11.822 6.823-0.038-13.578 11.821-6.824z" fill="#2A313F"/>
<path d="m362.49 140.89 0.039 13.579-11.812 6.824-0.039-13.579 11.812-6.824z" fill="#2A313F"/>
<path d="m410.49 188.87 0.039 13.57-42.387 24.465-0.039-13.569 42.387-24.466z" fill="#2A313F"/>
<path d="m410.43 169.98 0.039 13.579-42.377 24.456-0.039-13.569 42.377-24.466z" fill="#2A313F"/>
<path d="m410.38 151.1 0.038 13.57-42.387 24.465-0.039-13.569 42.388-24.466z" fill="#2A313F"/>
<path d="m410.32 132.2 0.039 13.579-42.378 24.465-0.039-13.579 42.378-24.465z" fill="#2A313F"/>
<path d="m410.27 113.32 0.039 13.579-42.387 24.465-0.039-13.579 42.387-24.465z" fill="#2A313F"/>
<path d="m362.7 216.44 0.048 13.569-11.822 6.824-0.038-13.57 11.812-6.823z" fill="#2A313F"/>
<path d="m362.66 197.56 0.039 13.579-11.822 6.823-0.029-13.579 11.812-6.823z" fill="#2A313F"/>
<path d="m362.61 178.67 0.029 13.569-11.812 6.824-0.039-13.569 11.822-6.824z" fill="#2A313F"/>
<path d="m417.04 220.89-0.029 10.566-73.488 42.7-0.039-10.809 73.556-42.457z" fill="#9052FE"/>
<path d="m343.55 263.34-0.029 10.809-73.974-42.7 0.029-10.809 73.974 42.7z" fill="#9052FE"/>
<path d="m343.07 102.24h0.836l4.2 2.43c-3.005 0.909-6.211 0.909-9.216 0l4.18-2.43z" fill="#2A313F"/>
<path d="m324.8 86.838c10.694-5.1807 26.424-5.1807 37.196 0l-3.792 2.2065c-8.662-3.9852-20.98-3.9852-29.583 0l-3.821-2.2065z" fill="#2A313F"/>
<path d="m331.3 90.59c7.77-3.1591 16.466-3.1591 24.236 0l-3.82 2.2162c-5.348-1.9825-11.229-1.9825-16.576 0l-3.84-2.2162z" fill="#2A313F"/>
<path d="m338.83 94.935c3.011-0.9139 6.225-0.9139 9.236 0l-4.18 2.43c-0.285-0.0194-0.571-0.0194-0.856 0l-4.2-2.43z" fill="#2A313F"/>
<path d="m347.72 100.04c0.019-0.1612 0.019-0.3243 0-0.4858l4.18-2.4202c0.372 0.3379 0.669 0.7499 0.872 1.2093 0.203 0.4595 0.308 0.9564 0.308 1.4588 0 0.5029-0.105 0.9989-0.308 1.4589-0.203 0.459-0.5 0.871-0.872 1.209l-4.18-2.43z" fill="#2A313F"/>
<path d="m355.57 104.6c3.403-2.916 3.393-6.7165-0.048-9.5937l3.869-2.2258c5.473 4.131 5.502 9.9145 0.078 14.046l-3.899-2.226z" fill="#2A313F"/>
<path d="m331.37 95.003c-3.413 2.916-3.384 6.7167 0.058 9.5937l-3.821 2.226c-5.473-4.131-5.512-9.9145-0.087-14.046l3.85 2.2258z" fill="#2A313F"/>
<path d="m362.1 108.37c6.805-4.996 6.805-12.14-0.097-17.136l3.791-2.2065c8.964 6.2208 9.022 15.318 0.117 21.54l-3.811-2.197z" fill="#2A313F"/>
<path d="m328.74 110.56c8.652 3.976 20.989 3.976 29.593 0l3.811 2.197c-10.694 5.181-26.424 5.181-37.186 0l3.782-2.197z" fill="#2A313F"/>
<path d="m324.85 91.232c-6.854 4.9961-6.805 12.131 0.097 17.136l-3.791 2.197c-8.983-6.221-9.022-15.319-0.127-21.53l3.821 2.1967z" fill="#2A313F"/>
<path d="m335.23 106.79c5.332 1.973 11.195 1.973 16.527 0l3.889 2.216c-7.774 3.158-16.473 3.158-24.247 0l3.831-2.216z" fill="#2A313F"/>
<path d="m339.25 99.552c-0.024 0.1644-0.024 0.3314 0 0.4958l-4.17 2.42c-0.375-0.336-0.674-0.748-0.879-1.207-0.205-0.46-0.311-0.958-0.311-1.4609 0-0.5033 0.106-1.001 0.311-1.4607s0.504-0.8711 0.879-1.2074l4.17 2.4202z" fill="#2A313F"/>
<path d="m302.92 306.95-0.029 8.728-87.312 50.739 0.019-8.729 87.322-50.738z" fill="#D3D3DD"/>
<path d="m215.6 357.69-0.019 8.729-87.886-50.729 0.02-8.738 87.885 50.738z" fill="#E0DEE9"/>
<path d="m302.92 306.95-87.321 50.738-87.886-50.738 87.322-50.729 87.885 50.729z" fill="#6E6E9C"/>
<path d="m289.3 174.65-0.379 130.96-73.487 42.691 0.379-130.95 73.487-42.7z" fill="#D3D3DD"/>
<path d="m215.82 217.35-0.379 130.95-73.964-42.7 0.369-130.95 73.974 42.7z" fill="#E0DEE9"/>
<path d="m289.3 174.65-73.487 42.7-73.974-42.7 73.487-42.7 73.974 42.7z" fill="#6E6E9C"/>
<path d="m160.91 231.91-0.039 13.579-11.812-6.823 0.039-13.579 11.812 6.823z" fill="#2A313F"/>
<path d="m160.96 213.02-0.039 13.569-11.812-6.814 0.039-13.569 11.812 6.814z" fill="#2A313F"/>
<path d="m161.01 194.14-0.039 13.578-11.812-6.823 0.039-13.579 11.812 6.824z" fill="#2A313F"/>
<path d="m208.63 278.38-0.038 13.579-42.378-24.466 0.039-13.578 42.377 24.465z" fill="#2A313F"/>
<path d="m208.69 259.5-0.039 13.579-42.378-24.475 0.03-13.569 42.387 24.465z" fill="#2A313F"/>
<path d="m208.75 240.61-0.039 13.569-42.388-24.465 0.039-13.569 42.388 24.465z" fill="#2A313F"/>
<path d="m208.8 221.71-0.038 13.579-42.378-24.465 0.039-13.569 42.377 24.455z" fill="#2A313F"/>
<path d="m160.8 269.68-0.039 13.579-11.812-6.823 0.039-13.569 11.812 6.813z" fill="#2A313F"/>
<path d="m160.86 250.8-0.039 13.579-11.812-6.813 0.039-13.579 11.812 6.813z" fill="#2A313F"/>
<path d="m208.58 297.27-0.039 13.579-42.378-24.466 0.039-13.578 42.378 24.465z" fill="#2A313F"/>
<path d="m234.47 233.93 0.039 13.579-11.822 6.824-0.039-13.579 11.822-6.824z" fill="#2A313F"/>
<path d="m234.41 215.04 0.038 13.579-11.821 6.824-0.039-13.579 11.822-6.824z" fill="#2A313F"/>
<path d="m282.4 263.02 0.039 13.569-42.378 24.466-0.039-13.57 42.378-24.465z" fill="#2A313F"/>
<path d="m282.35 244.13 0.039 13.578-42.387 24.466-0.039-13.579 42.387-24.465z" fill="#2A313F"/>
<path d="m282.3 225.25 0.039 13.569-42.378 24.466-0.039-13.579 42.378-24.456z" fill="#2A313F"/>
<path d="m282.25 206.36 0.039 13.578-42.388 24.466-0.039-13.579 42.388-24.465z" fill="#2A313F"/>
<path d="m282.19 187.47 0.039 13.578-42.378 24.456-0.038-13.579 42.377-24.455z" fill="#2A313F"/>
<path d="m234.63 290.6 0.038 13.569-11.821 6.823-0.03-13.569 11.813-6.823z" fill="#2A313F"/>
<path d="m234.58 271.7 0.029 13.579-11.812 6.823-0.039-13.578 11.822-6.824z" fill="#2A313F"/>
<path d="m234.52 252.83 0.039 13.569-11.812 6.823-0.049-13.569 11.822-6.823z" fill="#2A313F"/>
<path d="m288.96 295.04-0.029 10.556-73.488 42.7-0.029-10.809 73.546-42.447z" fill="#9052FE"/>
<path d="m215.48 337.49-0.03 10.809-73.973-42.7 0.029-10.809 73.974 42.7z" fill="#9052FE"/>
<path d="m214.99 176.38c0.275 0.02 0.551 0.02 0.826 0l4.21 2.43c-3.004 0.914-6.212 0.914-9.216 0l4.18-2.43z" fill="#2A313F"/>
<path d="m196.72 160.99c10.694-5.18 26.414-5.18 37.196 0l-3.792 2.197c-8.662-3.985-20.989-3.985-29.593 0l-3.811-2.197z" fill="#2A313F"/>
<path d="m203.22 164.74c7.775-3.15 16.471-3.15 24.246 0l-3.821 2.225c-5.35-1.983-11.234-1.983-16.585 0l-3.84-2.225z" fill="#2A313F"/>
<path d="m210.75 169.13c3.007-0.914 6.219-0.914 9.226 0l-4.171 2.42h-0.855l-4.2-2.42z" fill="#2A313F"/>
<path d="m219.6 174.19c0.019-0.161 0.019-0.324 0-0.486l4.18-2.43c0.371 0.339 0.666 0.751 0.869 1.21 0.202 0.46 0.307 0.956 0.307 1.458s-0.105 0.999-0.307 1.458c-0.203 0.459-0.498 0.872-0.869 1.21l-4.18-2.42z" fill="#2A313F"/>
<path d="m227.49 178.75c3.403-2.916 3.383-6.726-0.049-9.604l3.811-2.216c5.474 4.122 5.513 9.915 0.088 14.036l-3.85-2.216z" fill="#2A313F"/>
<path d="m203.28 169.13c-3.403 2.916-3.374 6.726 0.058 9.603l-3.821 2.217c-5.473-4.122-5.502-9.915-0.077-14.036l3.84 2.216z" fill="#2A313F"/>
<path d="m233.98 182.51c6.805-4.987 6.805-12.131-0.097-17.127l3.791-2.207c8.974 6.221 9.032 15.319 0.117 21.54l-3.811-2.206z" fill="#2A313F"/>
<path d="m200.66 184.68c8.642 3.976 20.98 3.976 29.583 0l3.811 2.197c-10.694 5.181-26.414 5.181-37.186 0l3.792-2.197z" fill="#2A313F"/>
<path d="m196.76 165.39c-6.806 4.986-6.806 12.13 0.097 17.126l-3.782 2.168c-8.983-6.221-9.031-15.319-0.126-21.539l3.811 2.245z" fill="#2A313F"/>
<path d="m207.14 180.94c5.332 1.973 11.195 1.973 16.527 0l3.889 2.226c-7.77 3.159-16.467 3.159-24.237 0l3.821-2.226z" fill="#2A313F"/>
<path d="m211.18 173.71c-0.029 0.161-0.029 0.325 0 0.486l-4.181 2.43c-0.373-0.338-0.672-0.75-0.876-1.211-0.204-0.46-0.309-0.958-0.31-1.462 1e-3 -0.504 0.106-1.002 0.31-1.462s0.503-0.873 0.876-1.211l4.181 2.43z" fill="#2A313F"/>
<g opacity=".4">
<g opacity=".4">
<path d="m372.49 445.48c1.809-4.86-4.54-11.732-14.184-15.309s-18.928-2.488-20.737 2.372c-1.808 4.86 4.54 11.732 14.184 15.319 9.645 3.586 18.919 2.517 20.737-2.362" fill="#D6D8E5" opacity=".4"/>
</g>
</g>
<g opacity=".4">
<g opacity=".4">
<path d="m239.01 364.85c2.411 5.239 12.745 5.637 23.099 0.894s16.79-12.84 14.388-18.079c-2.401-5.239-12.735-5.638-23.089-0.894-10.354 4.743-16.8 12.84-14.398 18.079z" fill="#D6D8E5" opacity=".4"/>
</g>
</g>
<path d="m354.69 319.65c0.885-1.429 7.651-2.362 9.878 3.373 0.845 2.177 0.719 7.776 1.429 11.226 0.709 3.451 2.362 5.473 2.965 8.311s-0.379 7.582-7.204 8.418c-6.825 0.835-12.084-1.556-13.698-3.733s-1.653-6.804 0-9.292c1.653-2.489 2.916-4.501 2.916-7.776l3.714-10.527z" fill="#3A2C6D"/>
<path d="m359.16 318.66s-5.104-1.468-8.196 1.283c-1.018 0.94-1.759 2.141-2.143 3.472-0.383 1.331-0.396 2.742-0.035 4.08 0.418 1.614 1.235 3.81 2.518 3.888 1.284 0.078 7.856-12.762 7.856-12.762" fill="#3A2C6D"/>
<path d="m361.11 332.56s-0.331 5.686-0.234 6.104c0.098 0.418 2.236 0.817 2.829 1.312 0.594 0.496-3.091 6.26-4.967 7.115-1.877 0.856-7.671-1.331-8.079-4.218-0.37-2.654 1.662-4.724 2.45-5.443 0.53-0.036 1.063-0.036 1.594 0l0.175-2.751c2.537-0.816 6.232-2.08 6.232-2.08" fill="#FFCEA9"/>
<path d="m347.37 343.29c0-0.155-0.856 0.301-0.875 0.311s-0.399 14.58-1.118 15.902c-1.818 3.091-6.64 8.33-6.757 8.913-0.35 1.769 0.671 0.185 2.324 0 0.972-0.116 6.407-5.657 7.641-6.92l0.078 0.048v-0.146l0.165-0.165c0.029-0.391 0.029-0.784 0-1.176 2.266-15.814-0.534-16.874-1.516-16.757" fill="#FFCEA9"/>
<path d="m361.89 339.23c1.594 0.253 3.422 1.098 3.675 1.944 0.657 3.15 0.5 6.415-0.457 9.487-1.381 3.654-2.314 5.978-3.111 7.552 0 0-6.903 2.916-12.474-0.486 0 0-0.379-3.888-0.408-6.016-5.143-4.481-0.748-10.012 3.607-14.308 0.524-0.044 1.051-0.044 1.575 0 0 0-3.889 4.588-1.186 7.202 5.784-1.749 6.932-4.345 8.75-5.385" fill="#F4F4F4"/>
<path d="m350.49 325.52c0.574-3.645 3.218-6.406 6.981-6.182 1.512 0.084 2.96 0.642 4.139 1.593 1.179 0.952 2.029 2.249 2.431 3.71 0.402 1.46 0.335 3.01-0.192 4.431-0.526 1.42-1.486 2.639-2.743 3.485-0.129 0.553-0.324 1.088-0.583 1.594-1.332 1.555-4.861 2.537-6.037 2.557-0.972 0-1.886-0.972-2.829-2.498-1.945-3.266-1.478-6.892-1.167-8.69z" fill="#FFCEA9"/>
<path d="m358.64 319.4c2.635 0.525 4.813 1.264 5.522 3.888 0.496 1.779 1.138 5.191 0.525 6.62l-0.379 1.04-3.198 1.642s-1.488-1.244-1.031-4.86c-0.012-0.493-0.167-0.973-0.447-1.38-0.2-0.342-0.347-0.713-0.438-1.098-0.378-0.985-1.119-1.788-2.07-2.246-2.382-1.331-5.833-0.175-6.358 0.302 0.666-1.454 1.812-2.635 3.246-3.343s3.069-0.9 4.628-0.545" fill="#3A2C6D"/>
<path d="m363.44 434.82c-1.331 1.089-3.412 0.34-3.519 0.438-1.551 1.335-3.173 2.584-4.861 3.742-0.836 0.651-2.129 1.526-1.896 2.789 0.418 2.246 4.025 1.556 5.386 0.866 1.361-0.691 2.47-1.828 3.753-2.625 0.924-0.573 1.828-0.865 1.944-2.031 0.088-0.7-0.564-3.198-0.797-3.179" fill="#38226D"/>
<path d="m364.25 437.54c-0.184 1.118-1.069 1.419-1.944 1.944-1.313 0.817-2.46 1.944-3.821 2.673s-4.384 1.273-5.269-0.34c0.476 2.177 4.015 1.487 5.366 0.807 1.352-0.681 2.47-1.828 3.753-2.625 0.924-0.573 1.828-0.865 1.944-2.031 0.019-0.155 0.019-0.312 0-0.467" fill="#9C73FF"/>
<path d="m354.07 432.96c-1.225 0.972-3.072 0.437-3.169 0.525-1.427 1.218-2.92 2.357-4.472 3.412-0.759 0.593-1.945 1.399-1.741 2.556 0.389 2.061 3.695 1.429 4.939 0.797s2.265-1.682 3.442-2.411c0.836-0.524 1.662-0.797 1.798-1.856-0.039-1.054-0.311-2.087-0.797-3.023z" fill="#38226D"/>
<path d="m354.85 435.55c-0.165 0.972-0.972 1.303-1.808 1.818-1.206 0.739-2.256 1.817-3.5 2.449-1.245 0.632-4.025 1.157-4.861-0.311 0.437 1.944 3.684 1.361 4.919 0.739s2.255-1.682 3.442-2.411c0.836-0.524 1.662-0.797 1.798-1.856 0.013-0.142 0.013-0.286 0-0.428" fill="#9C73FF"/>
<path d="m346.87 370.8c0.584-4.608 2.285-11.295 2.285-11.295 1.605 0.752 3.343 1.182 5.114 1.264 2.594-0.01 5.181-0.261 7.729-0.749 0.832 1.453 1.741 2.861 2.722 4.219 1.332 1.837 3.888 5.832 3.295 12.937-0.408 4.617-2.994 24.203-2.994 24.203 1.004 3.294 1.538 6.714 1.585 10.157-0.243 4.09-0.782 8.157-1.614 12.17l-1.546 11.119s-2.051 1.487-3.519 0.438l0.185-10.877c-0.175-2.663-0.438-6.6-0.603-9.108-0.282-4.082-0.972-10.575-1.225-12.189-0.253-1.613-0.729-4.451-0.972-7.63-0.243-3.178-1.449-19.294-1.449-19.294l-0.165 3.023s-0.156 4.86-0.865 10.945c-0.71 6.084-0.973 8.748-0.973 8.748 0.665 1.214 1.131 2.526 1.381 3.888 0.126 1.312 1.623 11.664 0.729 16.912l-1.837 13.375c-0.457 0.314-0.981 0.516-1.53 0.588-0.549 0.073-1.108 0.015-1.63-0.17l-1.079-13.482c-0.729-5.132-2.256-15.999-2.499-17.418-0.513-2.848-0.819-5.729-0.914-8.621-0.349-5.832-0.223-18.546 0.37-23.153" fill="#FFCEA9"/>
<path d="m361.99 358.22 3.966 7.97s6.057 8.865-0.213 31.639l1.176 7.027s-11.88 7.621-19.823 0c0 0-2.761-21.043-1.293-30.754 0.813-5.594 2.052-11.118 3.704-16.524 0 0 1.944 2.148 11.958 0.729" fill="#FF7B7B"/>
<path d="m352.72 337.41s-3.15-0.972-6.504 6.027l1.254 0.748s3.296-4.976 5.25-6.804" fill="#EDEDED"/>
<path d="m328.1 375.29 13.562-7.883 9.741 5.618-13.572 7.883-9.731-5.618z" fill="#F4F4F4"/>
<path d="m339.94 367.98c-0.85 0.09-1.672 0.358-2.411 0.787-0.264 0.238-0.55 0.45-0.855 0.632-0.137 0.068-0.263 0.155-0.409 0.214-0.208 0.068-0.393 0.192-0.535 0.359-0.153 0.22-0.238 0.481-0.243 0.749-0.047 0.322-0.047 0.65 0 0.972 0.117 0.486 0.623 0.457 0.895 0.116 0.127-0.173 0.205-0.378 0.223-0.592 5e-3 -0.207 0.06-0.41 0.16-0.591 0.099-0.181 0.242-0.335 0.414-0.45l3.237-2.012c-0.041-0.073-0.105-0.132-0.182-0.166-0.077-0.035-0.163-0.045-0.245-0.028" fill="#FFCEA9"/>
<path d="m365.73 343.68c-0.447-1.847-1.895-1.254-3.13-2.333-2.917 4.082-0.972 15.124-0.583 16.301l-11.073 7.056-0.739 0.467c-1.267 0.818-2.659 1.423-4.122 1.788-1.109 0.127-1.682 1.682-2.868 1.828-0.09 2e-3 -0.178 0.032-0.251 0.084-0.074 0.052-0.13 0.125-0.162 0.209s-0.039 0.176-0.019 0.264 0.065 0.168 0.13 0.23c0.477 0.457 1.74 0.078 2.606-0.972v0.078c0.01 0.162 0.061 0.319 0.147 0.457 0.087 0.137 0.207 0.251 0.348 0.33 0.066 0.028 0.134 0.048 0.205 0.058 1e-3 0.075 0.021 0.149 0.058 0.214 0.064 0.127 0.157 0.236 0.272 0.319s0.249 0.137 0.389 0.157c0.058 0.19 0.182 0.353 0.35 0.46 0.167 0.107 0.367 0.151 0.564 0.124 0.251-0.012 0.488-0.12 0.661-0.302 0.945-0.363 1.779-0.966 2.421-1.749 0.301-0.379 1.361-1.274 1.798-1.672 3.004-1.283 12.017-5.132 12.415-5.686 0.603-0.817 1.235-15.125 0.593-17.759" fill="#FFCEA9"/>
<path d="m366.74 348.65s-3.548 1.594-6.484 0.107l0.428-5.541s0-2.984 2.702-3.275c2.703-0.292 4.015 3.11 3.354 8.748" fill="#EDEDED"/>
<path d="m251.82 38.88 0.282-0.1264c0.37-0.1555 0.739-0.2916 1.109-0.4179h0.068c0.34-0.1167 0.68-0.2139 0.972-0.3111h0.214c0.531-0.147 1.069-0.2638 1.614-0.3499h0.116c0.418-0.0583 0.836-0.0972 1.245-0.1166h0.243 1.147 0.243c0.291 0 0.573 0.0583 0.855 0.0972h0.263c0.33 0.0583 0.661 0.136 0.972 0.2235h0.117c0.274 0.0794 0.543 0.1735 0.807 0.2819l0.262 0.1166 0.71 0.3402 0.243 0.1264-33.803-19.644-0.107-0.0583-0.136-0.0681-0.71-0.3402-0.136-0.068-0.117-0.0486c-0.272-0.1069-0.544-0.2041-0.816-0.2819h-0.097c-0.321-0.0875-0.642-0.1652-0.973-0.2236h-0.097-0.165c-0.282 0-0.564-0.0777-0.856-0.0972h-0.243-1.147-0.243c-0.408 0-0.817 0.0584-1.244 0.1167h-0.098c-0.544 0.086-1.083 0.2029-1.613 0.3499h-0.214c-0.341 0.0972-0.681 0.1944-0.972 0.311h-0.069c-0.369 0.1264-0.738 0.2625-1.108 0.418h-0.087l-0.195 0.0972c-0.34 0.1458-0.69 0.3013-1.04 0.4763-0.117 0.0583-0.243 0.1069-0.36 0.1749-0.437 0.2139-0.875 0.4472-1.312 0.7096l33.861 19.673c0.438-0.2625 0.875-0.4957 1.313-0.7096l0.359-0.1749c0.35-0.175 0.691-0.3305 1.041-0.4763" fill="#6E6E9C"/>
<path d="m232.03 31.61c0.564-0.2527 1.128-0.486 1.672-0.6804h0.078c0.472-0.1586 0.952-0.2916 1.439-0.3985 0.272-0.0713 0.544-0.1296 0.816-0.175 0.321-0.0684 0.646-0.1203 0.972-0.1555l0.584-0.0583h1.254 0.282c0.483 0.031 0.963 0.0926 1.439 0.1847l0.35 0.0777c0.362 0.0844 0.718 0.1882 1.069 0.3111l0.331 0.1166c0.44 0.1685 0.866 0.3734 1.273 0.6124l-33.764-19.732-0.107-0.0584c-0.315-0.1759-0.64-0.3349-0.972-0.4762l-0.194-0.0681-0.331-0.1166-0.506-0.1847-0.573-0.1166-0.35-0.0778h-0.185c-0.389-0.0689-0.782-0.1176-1.176-0.1458h-0.36-0.972-0.331l-0.583 0.068h-0.535l-0.486 0.107c-0.272 0.0453-0.544 0.1036-0.816 0.1749l-0.428 0.0875c-0.331 0.0875-0.671 0.1944-0.972 0.311h-0.078c-0.379 0.1361-0.768 0.2819-1.167 0.4472l-0.505 0.2235-0.477 0.2236c-0.593 0.2721-1.186 0.5735-1.788 0.9234-0.603 0.3499-1.459 0.8942-2.178 1.4094l33.861 19.673c0.71-0.5055 1.439-0.972 2.178-1.4094s1.196-0.6513 1.789-0.9234l0.476-0.2139" fill="#6E6E9C"/>
<path d="m200.05 22.016 0.515-0.2235c0.505-0.2042 0.972-0.3986 1.507-0.5735l0.282-0.1069c0.593-0.1944 1.176-0.3791 1.759-0.5346 0.331-0.0972 0.671-0.175 0.972-0.2528l0.496-0.1166c0.477-0.1069 0.972-0.1847 1.41-0.2624h0.078c0.466-0.0681 0.972-0.1167 1.38-0.1653h1.245c0.631-0.0341 1.264-0.0341 1.895 0h0.331c0.496 0 0.972 0.0972 1.478 0.175l0.457 0.0777c0.557 0.0947 1.109 0.2213 1.652 0.3791h0.068c0.505 0.1487 1.002 0.3239 1.488 0.5249l0.418 0.175c0.418 0.1846 0.816 0.379 1.215 0.5929l0.389 0.2041-33.852-19.702-0.175-0.0972-0.214-0.10692c-0.388-0.21384-0.797-0.40824-1.215-0.59292l-0.204-0.10692-0.194-0.06804c-0.487-0.20102-0.983-0.37622-1.488-0.52488h-0.048c-0.55-0.16515-1.108-0.29821-1.673-0.39852h-0.194-0.263c-0.486-0.07776-0.972-0.13608-1.477-0.17496-0.081 0.004758-0.162 0.004758-0.243 0h-0.078c-0.648-0.035475-1.297-0.035475-1.944 0h-0.175-0.623-0.437c-0.447 0.0486-0.914 0.0972-1.371 0.16524h-0.068c-0.467 0.06804-0.972 0.15552-1.41 0.26244-0.175 0-0.34 0.07776-0.505 0.11664s-0.603 0.13608-0.904 0.22356h-0.098c-0.583 0.15552-1.166 0.3402-1.759 0.5346l-0.282 0.10692c-0.496 0.17496-0.972 0.36936-1.507 0.57348l-0.165 0.05832c-0.117 0-0.234 0.11664-0.35 0.15552-0.535 0.23328-1.07 0.47628-1.614 0.73872l-0.593 0.2916c-0.7 0.34992-1.4 0.71928-2.1 1.1275-0.972 0.55404-1.944 1.1567-2.858 1.7885-0.331 0.22356-0.642 0.47628-0.972 0.70956-0.603 0.42768-1.216 0.85536-1.809 1.3122-0.379 0.2916-0.739 0.61236-1.108 0.972-0.535 0.42768-1.069 0.8554-1.594 1.3122s-0.759 0.7096-1.148 1.0692c-0.388 0.3596-0.972 0.8942-1.468 1.3705l-0.068 0.0583c-0.726 0.7323-1.445 1.4807-2.158 2.2454l-0.583 0.6512c-0.272 0.3013-0.545 0.5929-0.817 0.904-0.272 0.311-0.35 0.4276-0.525 0.6415-0.505 0.6026-0.972 1.2053-1.497 1.8176-0.194 0.2527-0.408 0.486-0.612 0.7485-0.205 0.2624-0.282 0.3888-0.428 0.5832-0.37 0.4762-0.72 0.972-1.079 1.458-0.224 0.311-0.457 0.6026-0.671 0.9136-0.214 0.3111-0.292 0.4472-0.447 0.661-0.292 0.4277-0.584 0.8651-0.866 1.3025s-0.408 0.5832-0.602 0.8845l-0.525 0.8651-0.739 1.2053-0.428 0.7095c-0.243 0.4083-0.457 0.8165-0.69 1.2247l-0.613 1.1081-0.243 0.4374c-0.33 0.6221-0.641 1.2539-0.972 1.8857l-0.379 0.7582-0.078 0.1555c-0.457 0.972-0.885 1.8857-1.303 2.8382l-0.058 0.1458c-0.117 0.2625-0.214 0.5346-0.331 0.8068-0.272 0.6609-0.554 1.3122-0.806 1.944-0.059 0.1361-0.098 0.2624-0.146 0.3985-0.166 0.4277-0.311 0.8651-0.467 1.2928-0.155 0.4276-0.35 0.972-0.505 1.3996-0.059 0.1944-0.107 0.3791-0.166 0.5638-0.175 0.5346-0.33 1.0692-0.496 1.6038-0.165 0.5346-0.252 0.7873-0.359 1.1858-0.049 0.1847-0.088 0.3694-0.136 0.5638-0.185 0.6998-0.35 1.39-0.516 2.0898-0.087 0.3694-0.194 0.7387-0.272 1.0984-0.078 0.3596-0.126 0.6026-0.185 0.9039-0.34 0.1944-0.69 0.3694-1.04 0.5735-0.739 0.4277-1.458 0.8942-2.177 1.3705l-0.37 0.243c-0.69 0.4666-1.371 0.972-2.042 1.4775l-0.388 0.311c-0.681 0.5346-1.352 1.0789-2.013 1.6621l-0.175 0.1555c-0.641 0.5638-1.264 1.1567-1.886 1.7594l-0.194 0.1749-0.117 0.1264c-0.476 0.4665-0.972 0.972-1.41 1.4385l-0.068 0.0778c-0.437 0.4763-0.875 0.972-1.302 1.4386l-0.117 0.136-0.156 0.1847c-0.69 0.8068-1.37 1.633-2.032 2.4786l-0.058 0.0681-0.146 0.2041c-0.525 0.6804-1.04 1.3802-1.536 2.0801l-0.155 0.2138c-0.029 0.0318-0.051 0.0679-0.068 0.1069-0.486 0.6804-0.973 1.3803-1.4 2.0801l-0.136 0.2041c-0.068 0.1002-0.129 0.2041-0.185 0.3111-0.37 0.5767-0.729 1.1599-1.079 1.7496-0.05 0.0941-0.105 0.185-0.165 0.2721l-0.059 0.1069c-0.398 0.6804-0.778 1.3706-1.147 2.0607l-0.088 0.1652-0.175 0.3402c-0.291 0.5508-0.573 1.1049-0.845 1.6621l-0.175 0.35c-0.029 0.0698-0.061 0.138-0.098 0.2041-0.33 0.7095-0.661 1.4094-0.972 2.1287v0.0583l-0.087 0.2333c-0.282 0.6415-0.545 1.283-0.797 1.944l-0.127 0.3207c0 0.0778-0.058 0.175-0.097 0.2625-0.292 0.7581-0.564 1.526-0.826 2.2939l-0.049 0.1361c-0.262 0.797-0.496 1.594-0.729 2.3814-0.023 0.102-0.053 0.2026-0.088 0.3013 4e-3 0.055 4e-3 0.1102 0 0.1652-0.252 0.9137-0.476 1.8371-0.68 2.7605l-0.058 0.243c0 0.1264-0.049 0.243-0.069 0.3596-0.077 0.3597-0.145 0.729-0.204 1.0887-0.058 0.3596-0.097 0.4957-0.136 0.7484s-0.116 0.7387-0.175 1.1178c0 0.175-0.048 0.3499-0.078 0.5249 5e-3 0.0453 5e-3 0.0908 0 0.1361-0.097 0.7873-0.175 1.5843-0.233 2.3619v0.5055c0 0.8067-0.078 1.6135-0.078 2.4008 0 5.9976 1.478 10.77 3.996 14.104 1.103 1.467 2.484 2.702 4.064 3.635l33.861 19.664c-4.958-2.916-8.04-9.01-8.059-17.729 0-0.788 0-1.594 0.077-2.401v-0.496c0.059-0.787 0.137-1.584 0.234-2.372l0.087-0.66c0.059-0.38 0.107-0.749 0.175-1.118 0.068-0.37 0.088-0.496 0.127-0.749 0.039-0.252 0.136-0.729 0.214-1.088 0-0.204 0.087-0.399 0.126-0.603 0.204-0.914 0.428-1.837 0.68-2.76 0-0.156 0.088-0.312 0.127-0.467 0.233-0.797 0.466-1.594 0.729-2.381l0.058-0.175c0.253-0.778 0.535-1.536 0.827-2.304 0.068-0.194 0.145-0.389 0.223-0.583 0.253-0.642 0.516-1.293 0.788-1.9442 0.048-0.0973 0.087-0.1945 0.126-0.2917 0.311-0.7192 0.642-1.4191 0.972-2.1286l0.272-0.5541c0.273-0.5508 0.555-1.1048 0.846-1.6621l0.263-0.5054c0.369-0.6901 0.748-1.3803 1.147-2.051l0.233-0.3888c0.341-0.5929 0.7-1.1761 1.07-1.7593l0.321-0.5054c0.447-0.6999 0.913-1.3997 1.399-2.0898l0.214-0.3013c0.506-0.7096 1.021-1.4094 1.546-2.0898l0.204-0.2722c0.661-0.8456 1.342-1.6718 2.032-2.4786l0.272-0.3208c0.428-0.486 0.866-0.972 1.303-1.4288l0.068-0.0875c0.467-0.486 0.972-0.972 1.41-1.4385l0.311-0.3014c0.622-0.6026 1.254-1.1955 1.886-1.7593l0.175-0.1555c0.648-0.5767 1.319-1.1308 2.012-1.6621l0.389-0.3111c0.671-0.5151 1.352-0.972 2.042-1.4774l0.36-0.243c0.719-0.4763 1.448-0.972 2.177-1.3608l1.05-0.5832c0.136-0.661 0.302-1.3316 0.457-2.0023 0.156-0.6707 0.331-1.39 0.515-2.0898 0.185-0.6999 0.321-1.1664 0.496-1.7496s0.321-1.0692 0.496-1.6038 0.438-1.3025 0.671-1.944c0.155-0.4374 0.301-0.8748 0.467-1.3025 0.301-0.797 0.622-1.5844 0.972-2.3717 0.116-0.2721 0.214-0.554 0.33-0.8165 0.457-1.0594 0.972-2.0995 1.439-3.1395l0.389-0.7582c0.379-0.7776 0.778-1.5552 1.196-2.3231 0.204-0.3693 0.408-0.7387 0.622-1.108 0.363-0.648 0.732-1.296 1.108-1.944 0.243-0.4083 0.486-0.8165 0.739-1.215 0.37-0.593 0.739-1.1762 1.128-1.7496 0.389-0.5735 0.573-0.8748 0.865-1.3025s0.642-1.0012 1.04-1.4872c0.399-0.486 0.71-0.972 1.079-1.4677 0.37-0.4957 0.691-0.8845 1.041-1.3219 0.496-0.6124 0.972-1.215 1.497-1.8177 0.525-0.6026 0.885-1.04 1.342-1.5454 0.194-0.2236 0.388-0.4374 0.593-0.6513 0.719-0.7905 1.458-1.5584 2.216-2.3036 0.486-0.4763 0.972-0.972 1.488-1.39 0.515-0.4179 0.738-0.7095 1.127-1.04s1.07-0.8943 1.604-1.3414c0.37-0.3013 0.73-0.6123 1.099-0.9039 0.593-0.4569 1.206-0.8846 1.818-1.322l0.972-0.6998c0.972-0.6318 1.945-1.2344 2.858-1.7885 0.7-0.4082 1.4-0.7776 2.1-1.1275l0.593-0.2916c0.545-0.2624 1.08-0.5054 1.614-0.729" fill="#6E6E9C"/>
<path d="m195.74 24.164c15.312-8.8355 28.194-4.2088 31.888 9.9922 0.701-0.507 1.428-0.9774 2.178-1.4094 9.654-5.5696 17.674-2.1384 19.298 7.5232 11.122-6.4346 19.871-1.3899 19.871 10.984 0 11.489-7.456 25.272-17.149 32.222-0.797 0.5638-1.556 1.0692-2.333 1.5164-0.725 0.4192-1.471 0.7989-2.236 1.1372l-84.134 48.717c-15.273 8.816-27.688 1.749-27.736-15.805-0.049-17.554 12.279-38.88 27.552-47.716 0.359-0.2138 0.7-0.3888 1.05-0.5832 3.616-18.342 16.43-37.752 31.712-46.578" fill="#D3D3DD"/>
<path d="m302.25 95.178c-1.527 2.7263-3.381 5.2557-5.522 7.5327-0.603 0.69-5.201-1.059-4.239-1.555 0.963-0.496 3.977-4.6947 5.483-7.494 1.266-3.3449 2.34-6.7589 3.218-10.226 0.973-3.4214 1.76-8.4467 2.45-10.818 0.179-0.8771 0.607-1.684 1.233-2.3237s1.423-1.0851 2.296-1.2825c1.653-0.379 2.722 0.0681 2.421 2.0704-0.525 3.5186-3.276 17.175-7.34 24.076" fill="#FFCEA9"/>
<path d="m304.89 148.72c-1.419 1.166-3.529 0.107-3.626 0.214-1.678 1.55-3.437 3.01-5.269 4.374-0.885 0.7-2.275 1.643-2.022 2.984 0.447 2.401 4.297 1.662 5.745 0.923 1.449-0.738 2.635-1.944 4.015-2.799 0.973-0.612 1.945-0.923 2.091-2.168 0.097-0.738-0.671-3.557-0.973-3.528" fill="#38226D"/>
<path d="m305.8 151.7c-0.184 1.186-1.137 1.516-2.109 2.119-1.391 0.865-2.625 2.119-4.074 2.848-1.448 0.729-4.686 1.351-5.629-0.36 0.516 2.314 4.288 1.585 5.726 0.856 1.439-0.729 2.635-1.944 4.016-2.8 0.972-0.612 1.944-0.923 2.09-2.167 0.023-0.165 0.023-0.331 0-0.496" fill="#9C73FF"/>
<path d="m290.43 140.34c-1.429 1.167-3.889-0.107-4.035 0-1.478 1.509-3.046 2.928-4.695 4.248-0.895 0.7-2.275 1.633-2.032 2.974 0.457 2.411 4.297 1.672 5.755 0.972 1.459-0.699 2.635-1.944 4.006-2.809 0.972-0.602 1.944-0.923 2.1-2.158 0.087-0.748-0.846-3.217-1.099-3.188" fill="#38226D"/>
<path d="m291.49 143.2c-0.195 1.186-1.147 1.516-2.12 2.119-1.39 0.865-2.624 2.119-4.073 2.848s-4.686 1.351-5.629-0.36c0.515 2.314 4.297 1.585 5.726 0.865 1.429-0.719 2.635-1.944 4.015-2.809 0.972-0.612 1.945-0.923 2.091-2.158 0.018-0.167 0.018-0.337 0-0.505" fill="#9C73FF"/>
<path d="m323.96 102.96c1.585 9.875-2.809 13.559-8.506 15.659-4.093 1.506-9.965 3.83-9.965 3.83s0.087 2.167 0.126 7.027c0.049 4.287-0.525 19.916-0.525 19.916-0.675 0.348-1.423 0.53-2.182 0.53-0.76 0-1.508-0.182-2.183-0.53 0 0-2.294-11.975-2.78-17.369-0.662-7.329-1.789-12.121-1.41-13.696 0.321-1.39 8.332-5.326 10.879-7.436l-16.78 5.619c0.333 1.821 0.496 3.669 0.486 5.521-0.156 5.832-0.477 18.39-0.477 18.39s-2.304 1.662-4.267 0c0 0-4.22-24.903-3.704-28.188 0.486-3.13 15.273-9.516 17.868-11.722 0.455-0.37 0.983-0.6398 1.549-0.7922s1.158-0.184 1.737-0.0928l20.134 3.334z" fill="#8C50FF"/>
<path d="m283.73 107.08 11.268-6.512c0.099-0.057 0.211-0.087 0.326-0.087 0.114 0 0.226 0.03 0.325 0.087l19.775 11.421-11.598 6.687-20.096-11.596z" fill="#F4F4F4"/>
<path d="m304.35 116.29 0.865 0.496c0.068 0 0.059 0.117 0 0.155l-0.826 0.477c-0.042 0.021-0.089 0.032-0.136 0.032s-0.094-0.011-0.136-0.032l-0.856-0.496c-0.068 0-0.058-0.107 0-0.156l0.817-0.476c0.042-0.021 0.089-0.032 0.136-0.032s0.094 0.011 0.136 0.032z" fill="#3A2C6D"/>
<path d="m303.14 115.59 0.865 0.496c0.068 0 0.058 0.107 0 0.155l-0.826 0.477c-0.042 0.021-0.089 0.032-0.136 0.032-0.048 0-0.094-0.011-0.136-0.032l-0.856-0.496c-0.068 0-0.068-0.107 0-0.156l0.817-0.476c0.042-0.021 0.089-0.032 0.136-0.032s0.094 0.011 0.136 0.032z" fill="#3A2C6D"/>
<path d="m301.91 114.88 0.855 0.495c0.068 0 0.059 0.107 0 0.156l-0.816 0.476c-0.043 0.022-0.089 0.033-0.137 0.033-0.047 0-0.093-0.011-0.136-0.033l-0.865-0.495c-0.068 0-0.058-0.117 0-0.156l0.826-0.476c0.043-0.022 0.089-0.033 0.137-0.033 0.047 0 0.093 0.011 0.136 0.033z" fill="#3A2C6D"/>
<path d="m300.71 114.18 0.855 0.496c0.078 0 0.068 0.116 0 0.165l-0.817 0.466c-0.041 0.024-0.088 0.037-0.136 0.037-0.047 0-0.094-0.013-0.136-0.037l-0.865-0.495c-0.068 0-0.058-0.107 0-0.156l0.817-0.466c0.042-0.022 0.088-0.033 0.136-0.033 0.047 0 0.094 0.011 0.136 0.033" fill="#3A2C6D"/>
<path d="m299.49 113.48 0.855 0.496c0.068 0 0.068 0.116 0 0.155l-0.816 0.477c-0.043 0.021-0.089 0.032-0.136 0.032-0.048 0-0.094-0.011-0.137-0.032l-0.865-0.496c-0.068 0-0.058-0.107 0-0.156l0.827-0.476c0.042-0.021 0.088-0.032 0.136-0.032 0.047 0 0.094 0.011 0.136 0.032z" fill="#3A2C6D"/>
<path d="m298.28 112.75 0.855 0.496c0.068 0 0.059 0.107 0 0.155l-0.816 0.477c-0.042 0.021-0.089 0.032-0.136 0.032-0.048 0-0.094-0.011-0.136-0.032l-0.866-0.496c-0.068 0-0.058-0.107 0-0.156l0.827-0.476c0.042-0.021 0.088-0.032 0.136-0.032 0.047 0 0.094 0.011 0.136 0.032z" fill="#3A2C6D"/>
<path d="m297.06 112.08 0.856 0.496c0.068 0 0.058 0.107 0 0.156l-0.817 0.476c-0.045 0.019-0.093 0.029-0.141 0.029s-0.096-0.01-0.141-0.029l-0.856-0.496c-0.068 0-0.058-0.116 0-0.155l0.827-0.477c0.041-0.024 0.088-0.036 0.136-0.036s0.095 0.012 0.136 0.036z" fill="#3A2C6D"/>
<path d="m295.85 111.37 0.856 0.495c0.068 0 0.058 0.117 0 0.166l-0.817 0.466c-0.043 0.024-0.092 0.037-0.141 0.037s-0.098-0.013-0.141-0.037l-0.855-0.495c-0.068 0-0.059-0.107 0-0.156l0.816-0.467c0.044-0.021 0.092-0.032 0.141-0.032s0.097 0.011 0.141 0.032" fill="#3A2C6D"/>
<path d="m294.62 110.67 0.865 0.496c0.068 0 0.058 0.116 0 0.155l-0.826 0.477c-0.043 0.021-0.089 0.032-0.137 0.032-0.047 0-0.093-0.011-0.136-0.032l-0.855-0.496c-0.068 0-0.059-0.107 0-0.156l0.816-0.476c0.043-0.021 0.089-0.032 0.137-0.032 0.047 0 0.093 0.011 0.136 0.032z" fill="#3A2C6D"/>
<path d="m293.41 109.97 0.866 0.496c0.068 0 0.058 0.107 0 0.155l-0.827 0.477c-0.042 0.021-0.088 0.032-0.136 0.032-0.047 0-0.094-0.011-0.136-0.032l-0.855-0.496c-0.068 0-0.068-0.107 0-0.156l0.816-0.476c0.042-0.021 0.089-0.032 0.136-0.032 0.048 0 0.094 0.011 0.136 0.032z" fill="#3A2C6D"/>
<path d="m292.19 109.27 0.865 0.496c0.068 0 0.058 0.107 0 0.156l-0.817 0.476c-0.043 0.019-0.089 0.029-0.136 0.029s-0.093-0.01-0.136-0.029l-0.856-0.496c-0.077 0-0.068-0.117 0-0.155l0.817-0.477c0.041-0.024 0.088-0.036 0.136-0.036s0.095 0.012 0.136 0.036" fill="#3A2C6D"/>
<path d="m290.98 108.56 0.856 0.495c0.077 0 0.068 0.117 0 0.166l-0.817 0.466c-0.042 0.022-0.089 0.033-0.136 0.033s-0.094-0.011-0.136-0.033l-0.865-0.495c-0.069 0-0.059-0.117 0-0.166l0.816-0.466c0.042-0.022 0.089-0.033 0.136-0.033 0.048 0 0.094 0.011 0.136 0.033" fill="#3A2C6D"/>
<path d="m289.76 107.89 0.856 0.496c0.068 0 0.068 0.116 0 0.155l-0.817 0.477c-0.042 0.021-0.089 0.032-0.136 0.032s-0.094-0.011-0.136-0.032l-0.865-0.496c-0.068 0-0.059-0.107 0-0.156l0.826-0.476c0.042-0.021 0.089-0.033 0.136-0.033s0.094 0.012 0.136 0.033z" fill="#3A2C6D"/>
<path d="m287.96 106.82 1.439 0.836c0.068 0 0.068 0.107 0 0.155l-0.816 0.477c-0.043 0.021-0.089 0.032-0.136 0.032-0.048 0-0.094-0.011-0.137-0.032l-1.448-0.836c-0.068 0-0.058-0.107 0-0.156l0.817-0.476c0.043-0.022 0.092-0.033 0.14-0.033 0.049 0 0.098 0.011 0.141 0.033z" fill="#3A2C6D"/>
<path d="m303.73 114.57 0.856 0.495c0.077 0 0.068 0.107 0 0.156l-0.817 0.476c-0.042 0.022-0.089 0.033-0.136 0.033-0.048 0-0.094-0.011-0.136-0.033l-0.866-0.495c-0.068 0-0.058-0.107 0-0.156l0.817-0.476c0.042-0.022 0.089-0.033 0.136-0.033s0.094 0.011 0.136 0.033" fill="#3A2C6D"/>
<path d="m302.52 113.86 0.856 0.496c0.068 0 0.058 0.116 0 0.165l-0.817 0.467c-0.042 0.021-0.089 0.032-0.136 0.032s-0.094-0.011-0.136-0.032l-0.865-0.496c-0.068 0-0.059-0.117 0-0.165l0.826-0.467c0.042-0.021 0.089-0.032 0.136-0.032s0.094 0.011 0.136 0.032z" fill="#3A2C6D"/>
<path d="m301.29 113.16 0.865 0.496c0.068 0 0.058 0.117 0 0.156l-0.826 0.476c-0.043 0.021-0.089 0.032-0.137 0.032-0.047 0-0.093-0.011-0.136-0.032l-0.855-0.496c-0.068 0-0.059-0.107 0-0.155l0.816-0.477c0.043-0.021 0.089-0.032 0.137-0.032 0.047 0 0.093 0.011 0.136 0.032z" fill="#3A2C6D"/>
<path d="m300.08 112.46 0.856 0.496c0.077 0 0.068 0.107 0 0.156l-0.817 0.476c-0.042 0.021-0.089 0.032-0.136 0.032-0.048 0-0.094-0.011-0.136-0.032l-0.856-0.496c-0.078 0-0.068-0.116 0-0.155l0.817-0.477c0.042-0.021 0.089-0.032 0.136-0.032s0.094 0.011 0.136 0.032z" fill="#3A2C6D"/>
<path d="m298.87 111.78 0.855 0.496c0.068 0 0.059 0.116 0 0.155l-0.816 0.477c-0.043 0.021-0.089 0.032-0.137 0.032-0.047 0-0.093-0.011-0.136-0.032l-0.865-0.496c-0.068 0-0.058-0.107 0-0.156l0.826-0.476c0.043-0.021 0.089-0.032 0.137-0.032 0.047 0 0.093 0.011 0.136 0.032z" fill="#3A2C6D"/>
<path d="m297.64 111.06 0.865 0.495c0.068 0 0.059 0.107 0 0.156l-0.826 0.476c-0.043 0.02-0.089 0.03-0.136 0.03s-0.093-0.01-0.136-0.03l-0.856-0.495c-0.068 0-0.058-0.117 0-0.156l0.817-0.476c0.041-0.024 0.088-0.037 0.136-0.037s0.095 0.013 0.136 0.037z" fill="#3A2C6D"/>
<path d="m296.43 110.35 0.855 0.496c0.078 0 0.068 0.117 0 0.165l-0.816 0.467c-0.042 0.024-0.089 0.036-0.136 0.036-0.048 0-0.095-0.012-0.137-0.036l-0.855-0.496c-0.078 0-0.068-0.107 0-0.156l0.817-0.476c0.042-0.019 0.089-0.029 0.136-0.029s0.093 0.01 0.136 0.029z" fill="#3A2C6D"/>
<path d="m295.22 109.65 0.856 0.496c0.068 0 0.058 0.107 0 0.156l-0.856 0.505c-0.042 0.021-0.089 0.033-0.136 0.033s-0.094-0.012-0.136-0.033l-0.865-0.496c-0.069 0-0.059-0.107 0-0.155l0.826-0.476c0.042-0.022 0.089-0.033 0.136-0.033s0.094 0.011 0.136 0.033" fill="#3A2C6D"/>
<path d="m293.99 108.95 0.865 0.496c0.068 0 0.058 0.107 0 0.156l-0.826 0.476c-0.043 0.019-0.089 0.029-0.136 0.029s-0.094-0.01-0.136-0.029l-0.856-0.496c-0.068 0-0.058-0.116 0-0.165l0.817-0.467c0.041-0.023 0.088-0.036 0.136-0.036s0.094 0.013 0.136 0.036z" fill="#3A2C6D"/>
<path d="m292.77 108.24 0.855 0.496c0.078 0 0.069 0.116 0 0.155l-0.816 0.476c-0.042 0.022-0.089 0.033-0.136 0.033-0.048 0-0.094-0.011-0.136-0.033l-0.866-0.495c-0.068 0-0.058-0.107 0-0.156l0.817-0.476c0.042-0.021 0.089-0.033 0.136-0.033s0.094 0.012 0.136 0.033" fill="#3A2C6D"/>
<path d="m291.56 107.54 0.856 0.496c0.068 0 0.058 0.107 0 0.155l-0.817 0.477c-0.042 0.021-0.089 0.032-0.136 0.032s-0.094-0.011-0.136-0.032l-0.865-0.496c-0.069 0-0.059-0.117 0-0.156l0.826-0.476c0.042-0.021 0.089-0.032 0.136-0.032s0.094 0.011 0.136 0.032z" fill="#3A2C6D"/>
<path d="m290.36 106.83 0.865 0.495c0.068 0 0.058 0.117 0 0.165l-0.826 0.467c-0.042 0.021-0.089 0.033-0.136 0.033-0.048 0-0.094-0.012-0.136-0.033l-0.856-0.496c-0.068 0-0.058-0.116 0-0.165l0.817-0.466c0.042-0.022 0.088-0.033 0.136-0.033 0.047 0 0.094 0.011 0.136 0.033z" fill="#3A2C6D"/>
<path d="m304.95 115.27 1.448 0.835c0.068 0 0.059 0.117 0 0.156l-0.816 0.476c-0.042 0.022-0.089 0.033-0.136 0.033-0.048 0-0.094-0.011-0.136-0.033l-1.449-0.836c-0.068 0-0.058-0.107 0-0.155l0.817-0.476c0.042-0.02 0.089-0.03 0.136-0.03s0.093 0.01 0.136 0.03z" fill="#3A2C6D"/>
<path d="m288.02 106.78 0.856 0.496c0.039 0.019 0.082 0.029 0.126 0.029s0.087-0.01 0.127-0.029l0.865-0.506c0.078 0 0.078-0.107 0-0.146h-0.068c-0.012-6e-3 -0.023-0.016-0.03-0.028s-0.01-0.026-0.01-0.04c0-0.013 3e-3 -0.027 0.01-0.039s0.018-0.022 0.03-0.029l0.923-0.534c0.015-6e-3 0.028-0.016 0.037-0.029s0.014-0.028 0.014-0.044-5e-3 -0.031-0.014-0.045c-9e-3 -0.013-0.022-0.022-0.037-0.028l-0.544-0.311c-0.041-0.019-0.086-0.029-0.131-0.029-0.046 0-0.09 0.01-0.132 0.029l-0.855 0.496-0.175 0.097-0.126 0.078-0.127 0.077-0.739 0.418c-0.078 0-0.078 0.107 0 0.156" fill="#3A2C6D"/>
<path d="m309.07 113.57 0.855 0.495c0.078 0 0.068 0.107 0 0.156l-0.816 0.476c-0.043 0.019-0.089 0.029-0.136 0.029s-0.094-0.01-0.136-0.029l-0.866-0.496c-0.068 0-0.058-0.116 0-0.155l0.817-0.476c0.041-0.024 0.088-0.037 0.136-0.037s0.095 0.013 0.136 0.037" fill="#3A2C6D"/>
<path d="m307.86 112.87 0.865 0.495c0.068 0 0.058 0.107 0 0.156l-0.827 0.476c-0.042 0.019-0.089 0.029-0.136 0.029s-0.093-0.01-0.136-0.029l-0.855-0.496c-0.068 0-0.068-0.116 0-0.155l0.816-0.476c0.042-0.024 0.089-0.037 0.136-0.037 0.048 0 0.095 0.013 0.137 0.037z" fill="#3A2C6D"/>
<path d="m306.64 112.17 0.866 0.496c0.068 0 0.058 0.106 0 0.155l-0.817 0.476c-0.045 0.019-0.093 0.029-0.141 0.029-0.049 0-0.096-0.01-0.141-0.029l-0.856-0.495c-0.068 0-0.058-0.117 0-0.156l0.817-0.476c0.041-0.024 0.088-0.037 0.136-0.037s0.095 0.013 0.136 0.037z" fill="#3A2C6D"/>
<path d="m296.31 106.2 0.856 0.496c0.077 0 0.068 0.116 0 0.155l-0.817 0.476c-0.042 0.022-0.089 0.033-0.136 0.033s-0.094-0.011-0.136-0.033l-0.866-0.495c-0.068 0-0.058-0.107 0-0.156l0.827-0.476c0.042-0.022 0.089-0.033 0.136-0.033s0.094 0.011 0.136 0.033z" fill="#3A2C6D"/>
<path d="m295.1 105.5 0.865 0.496c0.068 0 0.058 0.116 0 0.155l-0.826 0.476c-0.043 0.022-0.089 0.033-0.137 0.033-0.047 0-0.093-0.011-0.136-0.033l-0.855-0.495c-0.078 0-0.068-0.107 0-0.156l0.817-0.476c0.042-0.021 0.088-0.033 0.136-0.033 0.047 0 0.094 0.012 0.136 0.033z" fill="#3A2C6D"/>
<path d="m293.88 104.8 0.866 0.496c0.068 0 0.058 0.116 0 0.155l-0.827 0.477c-0.042 0.021-0.089 0.032-0.136 0.032s-0.094-0.011-0.136-0.032l-0.855-0.496c-0.068 0-0.059-0.107 0-0.156l0.816-0.476c0.042-0.021 0.089-0.032 0.136-0.032 0.048 0 0.094 0.011 0.136 0.032z" fill="#3A2C6D"/>
<path d="m292.68 104.1 0.856 0.496c0.068 0 0.058 0.117 0 0.155l-0.817 0.477c-0.044 0.021-0.092 0.032-0.141 0.032s-0.097-0.011-0.141-0.032l-0.855-0.496c-0.068 0-0.059-0.107 0-0.156l0.826-0.476c0.042-0.021 0.089-0.032 0.136-0.032s0.094 0.011 0.136 0.032z" fill="#3A2C6D"/>
<path d="m305.12 111.28 1.166 0.681c0.068 0 0.059 0.107 0 0.155l-0.816 0.477c-0.043 0.019-0.09 0.029-0.136 0.029-0.047 0-0.094-0.01-0.137-0.029l-1.176-0.681c-0.068 0-0.058-0.107 0-0.155l0.817-0.477c0.044-0.021 0.092-0.032 0.141-0.032s0.097 0.011 0.141 0.032z" fill="#3A2C6D"/>
<path d="m297.53 106.92 1.167 0.68c0.068 0 0.068 0.107 0 0.156l-0.817 0.476c-0.042 0.022-0.089 0.033-0.136 0.033-0.048 0-0.094-0.011-0.136-0.033l-1.177-0.68c-0.068 0-0.058-0.107 0-0.156l0.827-0.476c0.042-0.019 0.089-0.029 0.136-0.029s0.093 0.01 0.136 0.029z" fill="#3A2C6D"/>
<path d="m299.06 107.78 5.707 3.295c0.068 0 0.058 0.107 0 0.156l-0.817 0.476c-0.042 0.021-0.088 0.032-0.136 0.032-0.047 0-0.094-0.011-0.136-0.032l-5.716-3.295c-0.068 0-0.059-0.117 0-0.156l0.816-0.476c0.044-0.021 0.092-0.033 0.141-0.033s0.097 0.012 0.141 0.033z" fill="#3A2C6D"/>
<path d="m304.58 113.72 0.866 0.496c0.068 0 0.058 0.116 0 0.155l-0.827 0.477c-0.041 0.023-0.088 0.036-0.136 0.036s-0.095-0.013-0.136-0.036l-0.855-0.496c-0.068 0-0.068-0.107 0-0.156l0.816-0.476c0.043-0.019 0.089-0.029 0.136-0.029s0.094 0.01 0.136 0.029z" fill="#3A2C6D"/>
<path d="m303.36 113 0.865 0.496c0.068 0 0.058 0.116 0 0.155l-0.827 0.477c-0.042 0.021-0.088 0.032-0.136 0.032-0.047 0-0.094-0.011-0.136-0.032l-0.855-0.496c-0.068 0-0.068-0.107 0-0.156l0.816-0.476c0.043-0.021 0.089-0.032 0.136-0.032 0.048 0 0.094 0.011 0.137 0.032z" fill="#3A2C6D"/>
<path d="m302.15 112.3 0.865 0.496c0.068 0 0.058 0.107 0 0.155l-0.826 0.477c-0.043 0.021-0.089 0.032-0.136 0.032-0.048 0-0.094-0.011-0.137-0.032l-0.855-0.496c-0.068 0-0.068-0.107 0-0.156l0.817-0.476c0.042-0.021 0.088-0.032 0.136-0.032 0.047 0 0.094 0.011 0.136 0.032z" fill="#3A2C6D"/>
<path d="m300.93 111.6 0.865 0.496c0.068 0 0.058 0.107 0 0.156l-0.826 0.476c-0.042 0.021-0.089 0.032-0.136 0.032-0.048 0-0.094-0.011-0.136-0.032l-0.856-0.496c-0.068 0-0.068-0.116 0-0.155l0.817-0.477c0.042-0.021 0.089-0.032 0.136-0.032s0.094 0.011 0.136 0.032z" fill="#3A2C6D"/>
<path d="m299.72 110.9 0.866 0.496c0.068 0 0.058 0.107 0 0.156l-0.827 0.476c-0.042 0.019-0.089 0.029-0.136 0.029s-0.093-0.01-0.136-0.029l-0.855-0.496c-0.068 0-0.059-0.116 0-0.165l0.816-0.467c0.042-0.023 0.089-0.036 0.136-0.036 0.048 0 0.095 0.013 0.136 0.036z" fill="#3A2C6D"/>
<path d="m298.5 110.19 0.865 0.496c0.068 0 0.058 0.116 0 0.165l-0.827 0.466c-0.042 0.022-0.088 0.033-0.136 0.033-0.047 0-0.094-0.011-0.136-0.033l-0.855-0.495c-0.068 0-0.059-0.117 0-0.166l0.816-0.466c0.043-0.021 0.089-0.033 0.136-0.033 0.048 0 0.094 0.012 0.137 0.033z" fill="#3A2C6D"/>
<path d="m297.29 109.49 0.865 0.496c0.068 0 0.058 0.116 0 0.155l-0.826 0.477c-0.042 0.024-0.089 0.036-0.136 0.036-0.048 0-0.095-0.012-0.137-0.036l-0.855-0.496c-0.068 0-0.058-0.107 0-0.156l0.817-0.476c0.042-0.019 0.089-0.029 0.136-0.029s0.093 0.01 0.136 0.029z" fill="#3A2C6D"/>
<path d="m296.07 108.79 0.865 0.496c0.068 0 0.059 0.117 0 0.155l-0.826 0.477c-0.042 0.021-0.089 0.032-0.136 0.032-0.048 0-0.094-0.011-0.136-0.032l-0.856-0.496c-0.068 0-0.058-0.107 0-0.155l0.817-0.477c0.042-0.021 0.089-0.032 0.136-0.032s0.094 0.011 0.136 0.032z" fill="#3A2C6D"/>
<path d="m294.86 108.09 0.865 0.496c0.068 0 0.059 0.107 0 0.156l-0.826 0.476c-0.042 0.021-0.089 0.032-0.136 0.032s-0.094-0.011-0.136-0.032l-0.856-0.496c-0.068 0-0.058-0.107 0-0.155l0.817-0.477c0.042-0.021 0.089-0.032 0.136-0.032s0.094 0.011 0.136 0.032z" fill="#3A2C6D"/>
<path d="m293.65 107.39 0.856 0.495c0.068 0 0.058 0.107 0 0.156l-0.827 0.476c-0.042 0.022-0.089 0.033-0.136 0.033s-0.094-0.011-0.136-0.033l-0.856-0.496c-0.068 0-0.058-0.116 0-0.155l0.817-0.476c0.044-0.022 0.092-0.033 0.141-0.033s0.097 0.011 0.141 0.033z" fill="#3A2C6D"/>
<path d="m292.43 106.69 0.856 0.495c0.068 0 0.058 0.107 0 0.156l-0.827 0.476c-0.042 0.02-0.089 0.03-0.136 0.03s-0.093-0.01-0.136-0.03l-0.855-0.495c-0.069 0-0.059-0.117 0-0.166l0.816-0.466c0.043-0.024 0.092-0.037 0.141-0.037s0.098 0.013 0.141 0.037z" fill="#3A2C6D"/>
<path d="m291.22 105.95 0.856 0.496c0.068 0 0.058 0.116 0 0.165l-0.817 0.467c-0.044 0.021-0.092 0.032-0.141 0.032s-0.097-0.011-0.141-0.032l-0.855-0.496c-0.068 0-0.059-0.117 0-0.165l0.816-0.467c0.044-0.021 0.092-0.033 0.141-0.033s0.097 0.012 0.141 0.033z" fill="#3A2C6D"/>
<path d="m305.79 114.4 1.779 1.03c0.068 0 0.058 0.107 0 0.156l-0.817 0.476c-0.042 0.021-0.088 0.032-0.136 0.032-0.047 0-0.094-0.011-0.136-0.032l-1.779-1.03c-0.078 0-0.068-0.107 0-0.156l0.817-0.467c0.042-0.021 0.089-0.032 0.136-0.032s0.094 0.011 0.136 0.032" fill="#3A2C6D"/>
<path d="m306.37 113.36 0.855 0.496c0.068 0 0.059 0.107 0 0.156l-0.816 0.476c-0.043 0.021-0.089 0.032-0.136 0.032-0.048 0-0.094-0.011-0.137-0.032l-0.865-0.496c-0.068 0-0.058-0.107 0-0.155l0.827-0.477c0.042-0.021 0.088-0.032 0.136-0.032 0.047 0 0.094 0.011 0.136 0.032z" fill="#3A2C6D"/>
<path d="m305.15 112.66 0.855 0.495c0.069 0 0.059 0.107 0 0.156l-0.816 0.476c-0.042 0.021-0.089 0.033-0.136 0.033-0.048 0-0.094-0.012-0.136-0.033l-0.866-0.496c-0.068 0-0.058-0.116 0-0.155l0.827-0.476c0.042-0.022 0.089-0.033 0.136-0.033s0.094 0.011 0.136 0.033z" fill="#3A2C6D"/>
<path d="m303.97 111.96 0.856 0.495c0.068 0 0.058 0.107 0 0.156l-0.817 0.476c-0.044 0.022-0.092 0.033-0.141 0.033s-0.097-0.011-0.141-0.033l-0.855-0.495c-0.068 0-0.059-0.117 0-0.156l0.826-0.476c0.042-0.022 0.089-0.033 0.136-0.033s0.094 0.011 0.136 0.033z" fill="#3A2C6D"/>
<path d="m302.72 111.26 0.856 0.496c0.068 0 0.058 0.106 0 0.155l-0.817 0.476c-0.043 0.02-0.089 0.03-0.136 0.03s-0.093-0.01-0.136-0.03l-0.865-0.495c-0.068 0-0.059-0.117 0-0.166l0.826-0.466c0.041-0.024 0.088-0.037 0.136-0.037s0.095 0.013 0.136 0.037z" fill="#3A2C6D"/>
<path d="m301.5 110.56 0.856 0.496c0.068 0 0.058 0.117 0 0.165l-0.817 0.467c-0.042 0.021-0.089 0.032-0.136 0.032s-0.094-0.011-0.136-0.032l-0.865-0.496c-0.068 0-0.058-0.117 0-0.165l0.826-0.467c0.042-0.021 0.089-0.032 0.136-0.032 0.048 0 0.094 0.011 0.136 0.032z" fill="#3A2C6D"/>
<path d="m300.29 109.84 0.855 0.496c0.068 0 0.059 0.116 0 0.165l-0.816 0.467c-0.042 0.023-0.089 0.036-0.137 0.036-0.047 0-0.094-0.013-0.136-0.036l-0.865-0.496c-0.068 0-0.058-0.107 0-0.156l0.826-0.476c0.043-0.019 0.09-0.029 0.137-0.029 0.046 0 0.093 0.01 0.136 0.029z" fill="#3A2C6D"/>
<path d="m299.11 109.16 0.855 0.495c0.068 0 0.059 0.117 0 0.156l-0.816 0.476c-0.042 0.022-0.089 0.033-0.136 0.033-0.048 0-0.094-0.011-0.136-0.033l-0.866-0.496c-0.068 0-0.058-0.106 0-0.155l0.827-0.476c0.042-0.022 0.088-0.033 0.136-0.033 0.047 0 0.094 0.011 0.136 0.033z" fill="#3A2C6D"/>
<path d="m297.86 108.46 0.855 0.496c0.078 0 0.059 0.106 0 0.155l-0.816 0.476c-0.042 0.022-0.089 0.033-0.136 0.033-0.048 0-0.094-0.011-0.136-0.033l-0.866-0.495c-0.068 0-0.058-0.107 0-0.156l0.827-0.476c0.042-0.022 0.089-0.033 0.136-0.033s0.094 0.011 0.136 0.033z" fill="#3A2C6D"/>
<path d="m296.64 107.76 0.856 0.496c0.077 0 0.068 0.107 0 0.155l-0.817 0.477c-0.042 0.021-0.089 0.032-0.136 0.032s-0.094-0.011-0.136-0.032l-0.865-0.496c-0.069 0-0.059-0.117 0-0.156l0.826-0.476c0.042-0.021 0.089-0.032 0.136-0.032s0.094 0.011 0.136 0.032z" fill="#3A2C6D"/>
<path d="m295.43 107.06 0.856 0.496c0.078 0 0.068 0.107 0 0.155l-0.817 0.477c-0.043 0.019-0.089 0.029-0.136 0.029s-0.093-0.01-0.136-0.029l-0.865-0.496c-0.068 0-0.059-0.117 0-0.156l0.826-0.476c0.041-0.024 0.088-0.036 0.136-0.036s0.095 0.012 0.136 0.036z" fill="#3A2C6D"/>
<path d="m294.25 106.36 0.856 0.496c0.078 0 0.068 0.107 0 0.156l-0.817 0.476c-0.042 0.019-0.089 0.029-0.136 0.029s-0.093-0.01-0.136-0.029l-0.865-0.496c-0.068 0-0.058-0.117 0-0.165l0.826-0.467c0.042-0.024 0.089-0.036 0.136-0.036 0.048 0 0.095 0.012 0.136 0.036z" fill="#3A2C6D"/>
<path d="m291.49 104.78 2.362 1.36c0.078 0 0.068 0.117 0 0.166l-0.816 0.466c-0.042 0.024-0.089 0.037-0.136 0.037-0.048 0-0.095-0.013-0.137-0.037l-2.362-1.361c-0.068 0-0.058-0.106 0-0.155l0.817-0.476c0.042-0.022 0.088-0.033 0.136-0.033 0.047 0 0.094 0.011 0.136 0.033z" fill="#3A2C6D"/>
<path d="m307.58 114.06 1.166 0.681c0.068 0 0.059 0.107 0 0.155l-0.816 0.476c-0.043 0.02-0.09 0.03-0.137 0.03-0.046 0-0.093-0.01-0.136-0.03l-1.176-0.68c-0.068 0-0.058-0.107 0-0.156l0.826-0.476c0.043-0.021 0.089-0.032 0.137-0.032 0.047 0 0.093 0.011 0.136 0.032z" fill="#3A2C6D"/>
<path d="m286.74 107.53 17.237 9.954c0.068 0 0.058 0.116 0 0.165l-0.408 0.233c-0.044 0.022-0.092 0.033-0.141 0.033s-0.097-0.011-0.141-0.033l-17.247-9.992c-0.078 0-0.068-0.107 0-0.155l0.409-0.234c0.041-0.024 0.088-0.036 0.136-0.036 0.047 0 0.094 0.012 0.136 0.036" fill="#3A2C6D"/>
<path d="m306.92 107.97-0.117 0.068-2.975 1.72-5.298-3.062-0.117-0.058 3.101-1.788 5.406 3.12z" fill="#BFBFBF"/>
<path d="m306.8 108.04-2.975 1.72-5.299-3.061 2.985-1.721 5.289 3.062z" fill="#E5E5E5"/>
<path d="m315.43 111.99v0.262c7e-3 0.196-0.041 0.391-0.137 0.562s-0.237 0.313-0.407 0.41l-10.51 6.066c-0.163 0.095-0.349 0.146-0.539 0.146s-0.376-0.051-0.54-0.146l-19.016-10.974c-0.17-0.098-0.311-0.239-0.407-0.411-0.096-0.171-0.143-0.365-0.137-0.561v-0.263l20.095 11.596 11.598-6.687z" fill="#E5E5E5"/>
<path d="m303.53 118.85c-0.179 0.069-0.372 0.096-0.564 0.081-0.191-0.015-0.377-0.073-0.544-0.168l-18.929-10.925c-0.165-0.095-0.308-0.225-0.417-0.382-0.109-0.156-0.182-0.334-0.214-0.522l-2.071-12.354c-5e-3 -0.0712-5e-3 -0.1426 0-0.2138 0-0.3428 0.136-0.6714 0.379-0.9137l19.677 11.363c0.121 0.07 0.225 0.165 0.305 0.279 0.081 0.114 0.136 0.245 0.162 0.382l2.216 13.374z" fill="#F4F4F4"/>
<path d="m303.83 118.68-0.127 0.078-0.175 0.087-2.236-13.374c-0.026-0.138-0.081-0.268-0.161-0.382-0.081-0.114-0.185-0.209-0.305-0.279l-19.678-11.363c0.077-0.0785 0.166-0.1441 0.263-0.1944l19.716 11.372c0.122 0.071 0.227 0.168 0.307 0.284 0.081 0.116 0.135 0.248 0.16 0.387l2.236 13.384z" fill="#E5E5E5"/>
<path d="m318.12 65.804s-0.243 4.7045-0.136 5.1225 2.159 1.7885 2.761 2.2842c0.603 0.4957-3.257 4.2865-5.123 5.1516-1.867 0.8651-7.778-1.4094-7.914-4.3157s1.021-5.3557 1.945-5.4918c0.923-0.1361 8.487-2.7508 8.487-2.7508" fill="#FFCEA9"/>
<path d="m318.64 71.734s-3.413 5.0835-8.167 5.5598c-1.507-1.4774-1.643-6.7457 0.438-8.4272 0 0-1.945-1.5358-3.218-1.2345-1.397 0.8491-2.435 2.1804-2.917 3.7422-1.213 3.4975-1.783 7.1858-1.682 10.886 0.078 4.9864 0 17.603 0 17.603 0.282 1.4896 0.875 2.9036 1.742 4.1476 0.866 1.245 1.985 2.293 3.285 3.074 3.433 1.93 7.47 2.486 11.296 1.556 2.412-0.564 3.306-1.944 4.132-3.665-0.214-3.489-1.594-10.692-0.972-15.085 0.622-4.3934 1.507-7.6788 1.75-11.236s-0.467-3.4798-2.246-4.7531c-1.071-0.8016-2.199-1.526-3.373-2.1675" fill="#F4F4F4"/>
<path d="m313.17 112.26c0.859-0.566 1.752-1.079 2.674-1.535 0.864-0.269 1.651-0.743 2.294-1.381 0.836-0.826 2.207-3.888 3.179-6.94 0.972-3.4091 1.353-6.9595 1.128-10.497-0.418-4.2476-1.945-10.177-2.333-12.636-0.389-2.4591 0.398-3.4117 1.536-4.3156 1.332-1.0498 3.169-0.5833 4.151 2.8285 1.282 4.7556 2.028 9.6393 2.226 14.56 0.028 3.6328-0.544 7.2452-1.691 10.692-1.012 2.959-2.383 5.783-4.084 8.408-0.466 0.787-0.612 1.487-1.331 3.101-0.69 1.615-1.761 3.039-3.121 4.15-1.196 0.855-1.76 0.972-2.042 0.816-0.282-0.155-0.282-0.592 0.224-1.049 0.846-0.66 1.568-1.467 2.129-2.382 0 0-1.05 1.05-1.731 1.614-0.602 0.514-1.273 0.942-1.993 1.273-0.7 0.311-1.672-0.282-1.176-0.748 0.496-0.467 0.972-0.71 2.003-1.565 0.53-0.457 1.003-0.976 1.409-1.546-0.698 0.54-1.439 1.021-2.216 1.439-0.607 0.373-1.31 0.562-2.022 0.544-0.37 0-0.817-0.525-0.127-1.03 0.954-0.495 1.845-1.102 2.654-1.808 0.759-0.758 1.196-1.4 0.973-1.409-0.224-0.01-0.632 0.456-1.527 0.738-0.894 0.282-1.857 0-1.944-0.457-0.088-0.456-0.088-0.408 0.748-0.816" fill="#FFCEA9"/>
<path d="m307.48 58.796c0.554-3.6547 3.189-6.4152 6.951-6.2111 1.917 0.1177 3.709 0.9897 4.984 2.4251s1.93 3.3174 1.821 5.2343c-0.061 1.1077-0.378 2.1862-0.927 3.1508-0.548 0.9646-1.312 1.7892-2.232 2.409-0.131 0.5526-0.327 1.0877-0.584 1.5941-1.332 1.5552-5.356 2.5175-6.513 2.3522-0.687-0.0612-1.34-0.3274-1.874-0.7642s-0.925-1.0239-1.121-1.6852c-1.254-2.8674-0.855-6.7068-0.544-8.505" fill="#FFCEA9"/>
<path d="m318.12 65.804-0.341-3.1882s2.596-6.736-3.548-5.4432c-4.054 0.8554-5.075 1.2247-6.31-1.4969-1.234-2.7216 3.121-5.171 8.293-4.4906 1.781 0.1872 3.427 1.0363 4.612 2.3792s1.822 3.0817 1.785 4.8719c-0.136 2.0023-0.671 6.0556-4.491 7.3678z" fill="#3A2C6D"/>
<path d="m328.65 84.078s-3.354 3.3437-7.331 2.3814c-0.563-0.3888-1.944-8.1842-1.944-8.1842s0-4.3254 3.315-4.2088 5.94 10.012 5.94 10.012" fill="#EDEDED"/>
<path d="m303.31 77.614c-0.94-0.038-1.828-0.4386-2.479-1.1178 0.126-1.7399 2.362-8.3689 6.864-8.8647-1.225 0.8572-2.196 2.0292-2.81 3.3923-0.695 2.1527-1.221 4.356-1.575 6.5902z" fill="#EDEDED"/>
<g opacity=".4">
<g opacity=".4">
<path d="m285.5 481.79c2.401 5.239 12.735 5.638 23.089 0.894 10.354-4.743 16.77-12.84 14.379-18.069-2.392-5.229-12.736-5.638-23.09-0.894-10.354 4.743-16.799 12.84-14.388 18.079" fill="#D6D8E5" opacity=".4"/>
</g>
</g>
<path d="m320.7 387.97s-0.641 9.652-1.944 11.042-5.551 2.342-5.551 2.342l-3.306 5.424s3.014-17.253 3.675-17.671 7.087-1.137 7.087-1.137" fill="#FFCEA9"/>
<path d="m314.36 377.25c0.805-0.369 1.716-0.432 2.563-0.176s1.571 0.813 2.036 1.566c1.215 2.012 2.469 8.913 2.586 10.089 0 0-1.701 2.352-4.258 1.944l-2.927-13.423z" fill="#EDEDED"/>
<path d="m304.59 473.6c-1.797 0.504-3.721 0.273-5.347-0.641-1.284 0-8.264-2.916-9.217-0.438-0.836 2.197 2.188 4.229 3.811 4.627 3.52 0.856 6.135 2.605 7.554 2.916 1.05 0.224 2.421 0.37 3.257-0.457 0.972-0.972 0.924-4.685-0.058-5.997" fill="#38226D"/>
<path d="m301.39 479.44c-1.419-0.292-4.035-2.051-7.554-2.916-1.361-0.33-3.694-1.808-3.889-3.577-0.311 2.022 2.421 3.82 3.889 4.18 3.519 0.855 6.135 2.614 7.554 2.916 1.05 0.223 2.421 0.369 3.257-0.457 0.218-0.242 0.378-0.532 0.467-0.846-0.524 0.398-1.134 0.668-1.78 0.787-0.647 0.12-1.313 0.087-1.944-0.097" fill="#9C73FF"/>
<path d="m315.46 470.22c-1.796 0.495-3.714 0.261-5.338-0.652-1.293 0-8.273-2.916-9.226-0.437-0.826 2.197 2.197 4.228 3.811 4.627 3.529 0.855 6.135 2.614 7.554 2.916 1.06 0.223 2.421 0.369 3.267-0.457 0.972-0.972 0.923-4.675-0.068-5.988" fill="#38226D"/>
<path d="m312.26 476.06c-1.42-0.301-4.025-2.06-7.554-2.916-1.352-0.33-3.685-1.807-3.889-3.577-0.321 2.032 2.411 3.82 3.889 4.19 3.529 0.855 6.134 2.614 7.554 2.916 1.059 0.223 2.42 0.369 3.266-0.457 0.219-0.24 0.376-0.531 0.457-0.846-0.523 0.399-1.132 0.67-1.779 0.792-0.646 0.121-1.312 0.09-1.944-0.092" fill="#9C73FF"/>
<path d="m316.23 450.58c-0.304-2.593-0.845-5.154-1.614-7.649 0 0 0.477-6.6 0.72-12.86 0.272-7.095 2.732-13.345 0.787-19.012l-21.621 4.86s1.04 28.363 1.332 31.794c0.158 2.668 0.483 5.323 0.972 7.951 0.972 5.492 2.09 17.788 2.09 17.788 2.324 1.351 5.717 0.243 5.717 0.243s0-15.397-0.136-19.353c-0.185-4.86-0.331-4.471-0.331-4.471l0.729-12.043 0.467-5.988s0.612 4.394 0.972 8.321c0.35 3.421 1.176 6.522 2.1 12.898 0.797 5.531 1.623 16.796 1.623 16.796 2.324 1.351 5.435 0.418 5.435 0.418s1.342-14.852 0.719-19.644" fill="#8C50FF"/>
<path d="m313.2 377.38c-1.672 0.078-2.917 0.505-3.121 0-0.18-0.863-0.307-1.736-0.379-2.615 0.185-0.476 0.35-0.972 0.35-0.972 2.1-1.292 2.761-3.557 3.033-6.191 0.477-4.51-1.944-8.457-6.465-8.923-4.239-0.438-7.359 2.537-8.195 6.629-0.448 2.012-1.332 5.832-0.127 9.146 0.671 1.857 1.536 3.334 2.411 3.626 0.84-0.029 1.677-0.104 2.508-0.224 0 0 0.224 1.254 0.38 2.061 0.155 0.807 0.097 1.225-1.507 2.206-1.604 0.982 2.42 3.014 5.045 2.819 2.625-0.194 5.581-1.788 6.397-3.489 0.904-1.886 0.827-4.122-0.32-4.063" fill="#FFCEA9"/>
<path d="m310.78 377.62c0.466 1.157-0.71 2.566-3.841 3.548-3.13 0.982-3.422-0.282-3.422-0.282-2.085 0.932-4.117 1.98-6.086 3.14-1.886 1.312-2.722 5.122-2.974 11.537-0.292 7.436-0.312 18.468-0.068 20.412 0 0 3.519 3.509 8.01 3.14 4.492-0.37 12.075-4.355 13.912-7.426-0.058-6.522-0.816-7.582 0.243-11.334 2.411-8.592 3.685-12.111 2.509-17.826-0.973-4.705-2.324-5.288-4.181-5.249-1.373 0.058-2.743 0.187-4.102 0.389" fill="#F4F4F4"/>
<path d="m298.34 421.65 2.285-25.885-4.861-2.556-1.886 1.575 0.583 23.25v1.458s-0.107 1.944 3.588 4.296c0 0 0.058-0.612 0.106-1.186l0.088-0.972 0.097 0.02z" fill="#FFCEA9"/>
<path d="m298.92 382.42c-2.489-0.049-4.083 1.273-4.686 5.112-0.603 3.84-0.972 6.979-0.972 6.979 1.143 1.278 2.734 2.068 4.443 2.207 3.013 0.33 3.888-1.196 3.888-1.196s0.311-3.995 0.486-6.697-0.077-6.347-3.159-6.405z" fill="#EDEDED"/>
<path d="m303.12 357.57c6.086-0.865 9.994 3.042 10.451 7.28 0.428 4.053-2.071 8.262-3.889 9.934-1.77 0.456-3.647 0.23-5.259-0.632-0.102-1.105-0.141-2.215-0.117-3.324 0 0 2.965-6.241-5.755-6.134 0 0-3.889-5.919 4.55-7.124" fill="#3A2C6D"/>
<path d="m273.62 268.86c0.224 2.012 2.625 10.692 2.11 13.608s-8.701 7.932-8.701 7.932l-1.128-5.084 4.531-4.403-1.225-8.418 4.413-3.635z" fill="#FFCEA9"/>
<path d="m267.29 260.32c0.795-0.369 1.699-0.433 2.538-0.178 0.84 0.255 1.556 0.809 2.012 1.558 1.205 1.993 2.459 8.836 2.566 10.002 0 0-1.681 2.333-4.219 1.944l-2.897-13.326z" fill="#EDEDED"/>
<path d="m257.94 356.89c-1.781 0.493-3.686 0.263-5.298-0.641-1.274 0-8.196-2.916-9.139-0.438-0.826 2.178 2.178 4.199 3.773 4.588 3.499 0.846 6.085 2.586 7.495 2.916 1.05 0.224 2.401 0.37 3.237-0.457 0.973-0.972 0.914-4.636-0.068-5.939" fill="#38226D"/>
<path d="m254.77 362.68c-1.409-0.301-3.995-2.041-7.495-2.916-1.342-0.33-3.656-1.798-3.889-3.547-0.311 2.012 2.401 3.79 3.889 4.15 3.5 0.846 6.086 2.586 7.495 2.916 1.05 0.224 2.402 0.369 3.238-0.457 0.213-0.24 0.369-0.526 0.457-0.836-0.521 0.394-1.125 0.661-1.766 0.78-0.641 0.12-1.302 0.089-1.929-0.09z" fill="#9C73FF"/>
<path d="m269.18 351.86c-1.782 0.494-3.687 0.264-5.299-0.642-1.283 0-8.205-2.915-9.148-0.437-0.826 2.187 2.178 4.199 3.782 4.588 3.5 0.846 6.086 2.595 7.486 2.916 1.05 0.223 2.401 0.369 3.237-0.457 0.972-0.972 0.914-4.636-0.058-5.939" fill="#38226D"/>
<path d="m266 357.64c-1.4-0.292-3.986-2.041-7.486-2.916-1.342-0.321-3.655-1.798-3.889-3.548-0.311 2.012 2.392 3.791 3.889 4.15 3.5 0.846 6.086 2.596 7.486 2.916 1.05 0.224 2.401 0.37 3.237-0.456 0.22-0.237 0.377-0.524 0.457-0.836-0.519 0.395-1.124 0.663-1.765 0.783-0.642 0.12-1.302 0.088-1.929-0.093z" fill="#9C73FF"/>
<path d="m269.32 333.04c-0.3-2.574-0.837-5.115-1.604-7.591 0 0 0.476-6.541 0.719-12.743 0.272-7.047 2.713-13.238 0.788-18.857l-21.729 4.86s1.313 28.072 1.604 31.474c0.157 2.642 0.482 5.272 0.973 7.873 0.972 5.453 2.605 18.419 2.605 18.419 1.652 0.791 3.523 1 5.308 0.593 0 0-0.165-16.388-0.311-20.315-0.185-4.801-0.331-4.432-0.331-4.432l0.72-11.946 0.476-5.939s0.603 4.365 0.972 8.253c0.341 3.402 1.157 6.473 2.071 12.791 0.797 5.482 2.09 16.524 2.09 16.524 2.295 1.332 5.415 0.224 5.415 0.224s0.837-14.386 0.214-19.139" fill="#FF7B7B"/>
<path d="m266.14 260.44c-1.653 0.087-2.917 0.515-3.092 0-0.181-0.853-0.307-1.717-0.379-2.586 0.194-0.476 0.36-0.972 0.36-0.972 2.061-1.244 2.731-3.528 3.033-6.104 0.466-4.471-1.945-8.379-6.417-8.845-4.209-0.438-7.301 2.517-8.117 6.571-0.448 2.002-1.332 5.783-0.136 9.078 0.661 1.837 1.526 3.295 2.391 3.587 0.833-0.029 1.664-0.104 2.489-0.224 0 0 0.223 1.244 0.379 2.041s0.097 1.215-1.497 2.197c-1.595 0.982 2.401 2.984 5.007 2.79 2.605-0.195 5.531-1.769 6.338-3.451 0.895-1.886 0.817-4.092-0.321-4.043" fill="#FFCEA9"/>
<path d="m263.74 260.69c0.457 1.138-0.709 2.537-3.811 3.519-3.101 0.982-3.393-0.282-3.393-0.282-2.07 0.922-4.085 1.96-6.037 3.111-1.867 1.302-2.693 5.073-2.917 11.44-0.291 7.377-0.32 18.312-0.068 20.198 0 0 3.481 3.47 7.943 3.111 4.463-0.36 11.968-4.316 13.786-7.368-0.049-6.464-0.797-7.514 0.243-11.237 2.401-8.524 3.655-12.013 2.498-17.68-0.972-4.666-2.313-5.249-4.151-5.2-1.36 0.057-2.717 0.187-4.064 0.388" fill="#F4F4F4"/>
<path d="m240.54 284.57c3.665 0.972 4.52-1.38 5.006-3.295 1.167-4.626 1.789-8.806 2.664-11.43 1.021-3.101 2.09-3.587 3.597-4.199 1.77-0.7 3.286 0.787 2.703 4.733-0.725 4.57-1.847 9.068-3.354 13.443-0.457 1.448-1.478 4.005-3.014 5.239-1.886 1.526-4.734 1.468-9.031 0.389-1.838-0.457-3.889-1.546-7.331-3.169-0.923-0.437-1.652-0.719-3.441-1.555-1.798-0.807-3.372-2.038-4.589-3.587-0.972-1.351-1.06-1.992-0.875-2.303s0.671-0.302 1.167 0.272c0.723 0.966 1.616 1.792 2.634 2.439 0 0-1.157-1.195-1.779-1.944-0.562-0.689-1.03-1.451-1.39-2.264-0.331-0.788 0.35-1.867 0.875-1.303s0.758 1.137 1.711 2.275c0.501 0.603 1.068 1.147 1.692 1.623-0.585-0.796-1.105-1.638-1.556-2.518-0.408-0.686-0.607-1.476-0.574-2.274 0-0.408 0.613-0.904 1.157-0.117 0.531 1.073 1.184 2.081 1.945 3.004 0.836 0.865 1.555 1.361 1.575 1.118 0.019-0.243-0.506-0.71-0.807-1.721-0.302-1.011 0-2.08 0.564-2.197 0.564-0.116 0.447-0.087 0.894 0.856 0.615 0.973 1.17 1.983 1.663 3.023 0.282 0.975 0.799 1.866 1.506 2.595 0.905 0.972 2.917 2.012 6.368 2.916" fill="#FFCEA9"/>
<path d="m253.16 265.02c-2.441-0.36-4.171 0.748-5.25 4.452-1.079 3.703-1.838 6.736-1.838 6.736 0.972 1.395 2.439 2.368 4.103 2.721 2.917 0.71 3.976-0.69 3.976-0.69s0.807-3.888 1.313-6.522c0.505-2.634 0.729-6.25-2.304-6.697z" fill="#EDEDED"/>
<path d="m251.63 247.86s-3.888-5.832 4.511-7.066c6.037-0.866 9.917 3.013 10.364 7.222 0.427 4.014-2.052 8.193-3.84 9.846-1.758 0.45-3.621 0.224-5.221-0.632-0.095-1.092-0.131-2.189-0.107-3.285 0 0 2.917-6.192-5.707-6.085z" fill="#3A2C6D"/>
<path d="m175.23 380.87-0.029 8.728-87.312 50.738 0.0292-8.728 87.312-50.738z" fill="#D3D3DD"/>
<path d="m87.915 431.61-0.0291 8.728-87.886-50.728 0.029166-8.729 87.886 50.729z" fill="#E0DEE9"/>
<path d="m175.23 380.87-87.312 50.738-87.886-50.729 87.312-50.738 87.886 50.729z" fill="#6E6E9C"/>
<path d="m161.61 248.57-0.369 130.96-73.488 42.69 0.3694-130.95 73.488-42.7z" fill="#D3D3DD"/>
<path d="m88.119 291.27-0.3694 130.95-73.974-42.69 0.3694-130.96 73.974 42.7z" fill="#E0DEE9"/>
<path d="m161.61 248.57-73.488 42.7-73.974-42.7 73.488-42.7 73.974 42.7z" fill="#6E6E9C"/>
<path d="m33.21 305.83-0.0388 13.579-11.812-6.824 0.0389-13.569 11.812 6.814z" fill="#2A313F"/>
<path d="m33.268 286.94-0.0389 13.569-11.812-6.813 0.0389-13.57 11.812 6.814z" fill="#2A313F"/>
<path d="m33.317 268.06-0.0389 13.579-11.802-6.823 0.0292-13.579 11.812 6.823z" fill="#2A313F"/>
<path d="m80.944 352.3-0.0389 13.579-42.387-24.465 0.0389-13.579 42.387 24.465z" fill="#2A313F"/>
<path d="m80.993 333.42-0.0389 13.579-42.378-24.465 0.0389-13.579 42.378 24.465z" fill="#2A313F"/>
<path d="m81.051 314.53-0.0389 13.57-42.387-24.466 0.0389-13.569 42.387 24.465z" fill="#2A313F"/>
<path d="m81.1 295.63-0.0388 13.579-42.378-24.466 0.0389-13.569 42.378 24.456z" fill="#2A313F"/>
<path d="m33.103 343.6-0.0389 13.579-11.812-6.824 0.0388-13.569 11.812 6.814z" fill="#2A313F"/>
<path d="m33.162 324.72-0.0389 13.579-11.812-6.814 0.0389-13.579 11.812 6.814z" fill="#2A313F"/>
<path d="m80.886 371.19-0.0389 13.579-42.378-24.465 0.0389-13.579 42.378 24.465z" fill="#2A313F"/>
<path d="m106.78 307.85 0.039 13.579-11.822 6.823-0.0389-13.579 11.822-6.823z" fill="#2A313F"/>
<path d="m106.72 288.97 0.039 13.579-11.812 6.823-0.0389-13.579 11.812-6.823z" fill="#2A313F"/>
<path d="m154.71 336.94 0.038 13.569-42.387 24.465-0.039-13.569 42.388-24.465z" fill="#2A313F"/>
<path d="m154.66 318.05 0.039 13.579-42.378 24.465-0.039-13.579 42.378-24.465z" fill="#2A313F"/>
<path d="m154.61 299.17 0.039 13.569-42.387 24.465-0.039-13.579 42.387-24.455z" fill="#2A313F"/>
<path d="m154.55 280.28 0.038 13.579-42.377 24.465-0.039-13.579 42.378-24.465z" fill="#2A313F"/>
<path d="m154.5 261.39 0.039 13.569-42.388 24.475-0.039-13.579 42.388-24.465z" fill="#2A313F"/>
<path d="m106.93 364.52 0.039 13.569-11.812 6.823-0.0389-13.569 11.812-6.823z" fill="#2A313F"/>
<path d="m106.88 345.62 0.039 13.579-11.822 6.823-0.0389-13.579 11.822-6.823z" fill="#2A313F"/>
<path d="m106.82 326.75 0.039 13.569-11.812 6.823-0.0389-13.569 11.812-6.823z" fill="#2A313F"/>
<path d="m161.27 368.96-0.029 10.555-73.488 42.7 0.0194-10.808 73.498-42.447z" fill="#9052FE"/>
<path d="m87.769 411.41-0.0292 10.808-73.964-42.69 0.0292-10.818 73.964 42.7z" fill="#9052FE"/>
<path d="m87.293 250.3c0.2784 0.019 0.5577 0.019 0.8361 0l4.1998 2.43c-3.0041 0.913-6.2121 0.913-9.2163 0l4.1804-2.43z" fill="#2A313F"/>
<path d="m69.025 234.91c10.694-5.181 26.424-5.181 37.196 0l-3.791 2.197c-8.6624-3.985-20.98-3.985-29.584 0l-3.8207-2.197z" fill="#2A313F"/>
<path d="m75.51 238.66c7.7719-3.149 16.465-3.149 24.237 0l-3.8207 2.226c-5.3328-1.97-11.194-1.97-16.527 0l-3.8887-2.226z" fill="#2A313F"/>
<path d="m83.054 243c3.0075-0.914 6.2186-0.914 9.2261 0l-4.1318 2.43h-0.8556l-4.2387-2.43z" fill="#2A313F"/>
<path d="m91.901 248.11c0.0194-0.162 0.0194-0.325 0-0.486l4.1804-2.43c0.3705 0.339 0.6663 0.751 0.8687 1.21s0.307 0.956 0.307 1.458-0.1046 0.998-0.307 1.458c-0.2024 0.459-0.4982 0.871-0.8687 1.21l-4.1804-2.42z" fill="#2A313F"/>
<path d="m99.814 252.72c3.4025-2.916 3.3925-6.726 0-9.603l3.8205-2.216c5.474 4.121 5.503 9.914 0.078 14.035l-3.8985-2.216z" fill="#2A313F"/>
<path d="m75.587 243.07c-3.4026 2.916-3.3735 6.726 0.0681 9.603l-3.8305 2.217c-5.4734-4.122-5.5025-9.915-0.0777-14.036l3.8401 2.216z" fill="#2A313F"/>
<path d="m106.33 256.44c6.805-4.996 6.805-12.141-0.098-17.137l3.792-2.206c8.964 6.221 9.022 15.319 0.117 21.539l-3.811-2.196z" fill="#2A313F"/>
<path d="m72.962 258.63c8.6524 3.975 20.99 3.975 29.584 0l3.811 2.206c-10.694 5.171-26.414 5.171-37.176 0l3.7818-2.206z" fill="#2A313F"/>
<path d="m69.064 239.31c-6.8053 4.987-6.8053 12.131 0.0973 17.137l-3.7819 2.196c-8.983-6.22-9.0316-15.318-0.1263-21.539l3.8109 2.206z" fill="#2A313F"/>
<path d="m79.448 254.86c5.3328 1.97 11.194 1.97 16.527 0l3.8887 2.225c-7.7733 3.159-16.473 3.159-24.246 0l3.8304-2.225z" fill="#2A313F"/>
<path d="m83.481 247.63c-0.0242 0.161-0.0242 0.325 0 0.486l-4.1804 2.43c-0.3734-0.338-0.6718-0.751-0.876-1.211-0.2042-0.461-0.3098-0.959-0.3098-1.462 0-0.504 0.1056-1.002 0.3098-1.462 0.2042-0.461 0.5026-0.873 0.876-1.211l4.1804 2.43z" fill="#2A313F"/>
</g>
<defs>
<clipPath id="a">
<rect width="431" height="486" fill="#fff"/>
</clipPath>
</defs>
</svg>
